{"glyphs":{"0":{"ha":736,"x_min":42,"x_max":694,"o":"m 140 831 q 368 921 235 921 q 596 831 501 921 q 675 673 656 764 q 694 450 694 582 q 675 227 694 318 q 596 69 656 136 q 368 -21 501 -21 q 140 69 235 -21 q 61 227 81 136 q 42 450 42 318 q 61 673 42 582 q 140 831 81 764 m 289 197 q 368 144 310 144 q 420 160 400 144 q 452 210 440 175 q 468 304 464 246 q 472 450 472 363 q 468 596 472 538 q 452 690 464 654 q 420 740 440 725 q 368 756 400 756 q 315 740 336 756 q 283 690 294 725 q 268 596 272 654 q 264 450 264 538 q 289 197 264 261 z "},"1":{"ha":736,"x_min":39,"x_max":694,"o":"m 306 176 l 304 279 l 304 461 q 308 540 304 482 q 314 622 313 599 q 129 494 242 542 q 71 544 97 508 q 39 619 44 579 q 311 900 233 740 q 415 908 358 908 q 515 900 471 908 l 515 279 l 514 176 l 608 178 l 683 178 q 694 89 694 136 q 683 0 694 42 l 104 0 q 93 90 93 44 q 104 178 93 136 l 217 178 l 306 176 z "},"2":{"ha":736,"x_min":50,"x_max":678,"o":"m 678 183 q 649 44 678 89 q 540 -1 621 -1 l 126 -1 q 76 62 100 24 q 51 131 51 100 q 91 245 50 185 q 211 378 132 306 l 361 514 q 435 646 435 581 q 409 717 435 689 q 338 744 383 744 q 261 709 293 744 q 215 622 229 674 q 172 626 194 622 q 127 639 149 631 q 88 659 106 647 q 61 686 71 671 q 103 781 75 738 q 169 855 131 824 q 259 903 208 886 q 371 921 310 921 q 483 901 431 921 q 573 844 535 881 q 633 755 611 807 q 654 640 654 703 q 611 494 653 558 q 489 364 569 431 l 389 281 q 276 168 293 199 q 388 179 336 175 q 488 183 440 183 l 678 183 z "},"3":{"ha":736,"x_min":51,"x_max":683,"o":"m 604 683 l 497 575 q 481 560 490 568 q 457 540 471 551 q 621 458 558 526 q 683 279 683 389 q 657 154 683 210 q 585 60 631 99 q 478 0 539 21 q 349 -21 417 -21 q 51 81 161 -21 q 82 156 57 118 q 142 221 107 194 q 321 153 226 153 q 424 190 388 153 q 461 289 461 228 q 450 343 461 321 q 422 380 439 365 q 381 401 404 394 q 335 408 358 408 q 264 392 293 408 q 215 438 238 404 q 183 508 192 472 l 311 640 q 359 687 335 665 q 406 726 383 708 l 400 735 q 265 718 335 718 l 97 718 q 83 804 83 757 q 88 853 83 829 q 101 900 92 878 l 603 900 q 646 774 646 824 q 604 683 646 725 z "},"4":{"ha":736,"x_min":29,"x_max":707,"o":"m 585 158 l 586 58 l 586 0 q 480 -8 539 -8 q 376 0 421 -8 l 376 58 l 378 158 l 275 157 l 75 157 q 29 278 29 229 q 54 381 29 328 l 278 911 q 389 907 326 919 q 475 867 451 894 l 382 643 q 231 333 293 424 l 235 326 q 376 335 285 332 l 376 408 q 416 535 376 489 q 526 581 456 581 l 576 581 l 586 572 l 586 438 l 585 336 l 664 338 l 701 338 q 707 255 707 304 q 693 158 707 206 l 585 158 z "},"5":{"ha":736,"x_min":51,"x_max":674,"o":"m 626 900 q 642 811 642 858 q 550 721 642 721 l 311 721 l 311 683 l 306 618 l 301 594 q 376 603 336 603 q 596 522 518 603 q 674 307 674 442 q 647 168 674 229 q 573 65 619 107 q 463 1 526 24 q 329 -21 400 -21 q 51 75 157 -21 q 63 112 54 92 q 83 151 71 132 q 109 188 94 171 q 139 217 124 206 q 229 169 186 183 q 308 154 272 154 q 415 195 376 154 q 453 299 453 236 q 413 401 453 365 q 317 438 374 438 q 256 427 288 438 q 194 394 225 417 q 135 423 167 401 q 86 469 103 444 l 111 889 l 122 900 l 626 900 z "},"6":{"ha":736,"x_min":44,"x_max":692,"o":"m 376 -21 q 44 442 44 -21 q 70 643 44 554 q 144 794 96 732 q 263 888 193 856 q 424 921 333 921 q 651 872 557 921 q 582 724 644 778 q 442 751 511 751 q 269 549 281 751 q 451 606 347 606 q 549 587 504 606 q 625 531 593 568 q 674 436 657 493 q 692 303 692 379 q 667 167 692 228 q 600 65 643 107 q 500 1 557 24 q 376 -21 443 -21 m 383 432 q 269 389 322 432 l 269 375 q 278 262 269 307 q 301 190 286 217 q 335 151 315 163 q 379 139 356 139 q 478 285 478 139 q 383 432 478 432 z "},"7":{"ha":736,"x_min":61,"x_max":690,"o":"m 82 900 l 651 900 q 690 774 690 817 q 661 688 690 731 l 607 613 q 408 64 433 371 l 403 0 q 296 -8 358 -8 q 183 0 233 -8 l 189 67 q 254 365 201 224 q 383 607 307 507 l 401 631 q 490 729 442 686 l 483 736 q 292 718 407 718 l 72 718 q 61 801 61 751 q 82 900 61 851 z "},"8":{"ha":736,"x_min":36,"x_max":700,"o":"m 36 229 q 186 461 36 369 q 58 675 58 543 q 82 773 58 728 q 147 851 106 818 q 246 902 189 883 q 369 921 303 921 q 494 903 438 921 q 591 852 551 885 q 653 774 631 819 q 675 672 675 728 q 546 486 675 558 q 663 378 625 439 q 700 239 700 318 q 674 131 700 179 q 601 49 647 83 q 492 -3 554 15 q 357 -21 429 -21 q 224 -3 283 -21 q 124 46 165 14 q 59 124 82 78 q 36 229 36 171 m 363 381 l 328 393 q 253 242 253 328 q 284 161 253 193 q 368 129 315 129 q 451 161 421 129 q 481 240 481 193 q 363 381 481 335 m 269 676 q 298 608 269 636 q 385 558 326 581 l 403 551 q 468 671 468 600 q 440 741 468 714 q 368 768 413 768 q 297 742 325 768 q 269 676 269 715 z "},"9":{"ha":736,"x_min":44,"x_max":692,"o":"m 360 921 q 692 458 692 921 q 666 257 692 346 q 592 106 640 168 q 472 12 543 44 q 313 -21 401 -21 q 85 28 179 -21 q 154 176 92 122 q 294 149 225 149 q 465 350 456 149 q 285 294 393 294 q 112 369 179 294 q 44 596 44 443 q 69 733 44 672 q 136 835 93 793 q 237 899 179 876 q 360 921 294 921 m 353 468 q 467 511 414 468 l 467 525 q 458 638 467 593 q 435 710 450 683 q 401 749 421 738 q 357 761 381 761 q 258 614 258 761 q 353 468 258 468 z "},"\r":{"ha":258,"x_min":0,"x_max":0,"o":""}," ":{"ha":306,"x_min":0,"x_max":0,"o":""},"!":{"ha":428,"x_min":90,"x_max":339,"o":"m 126 290 l 96 901 q 326 961 178 961 l 339 944 l 290 290 q 252 283 274 285 q 207 281 231 281 q 163 283 185 281 q 126 290 142 285 m 104 169 q 208 193 149 193 q 255 190 235 193 q 310 169 275 186 q 326 88 329 131 q 310 7 331 50 q 256 -13 278 -10 q 208 -17 235 -17 q 104 7 149 -17 q 90 88 90 33 q 104 169 90 143 z "},"\"":{"ha":626,"x_min":56,"x_max":569,"o":"m 369 1081 q 465 1106 411 1106 q 561 1081 519 1106 q 569 1014 569 1043 q 561 936 569 985 q 518 683 528 764 q 465 672 500 672 q 413 683 431 672 q 383 864 406 743 q 360 1010 360 985 q 369 1081 360 1036 m 65 1081 q 161 1106 107 1106 q 257 1081 215 1106 q 265 1014 265 1043 q 256 936 265 985 q 214 683 224 764 q 161 672 196 672 q 108 683 126 672 q 78 864 101 743 q 56 1010 56 985 q 65 1081 56 1036 z "},"#":{"ha":997,"x_min":25,"x_max":978,"o":"m 647 738 l 685 904 q 781 919 719 919 q 874 904 842 919 l 836 738 l 964 738 q 978 653 978 701 q 964 567 978 604 l 797 567 l 750 354 l 890 354 q 903 269 903 318 q 890 183 903 221 l 713 183 l 675 17 q 578 1 639 1 q 486 17 517 1 l 524 183 l 358 183 l 321 17 q 225 1 286 1 q 132 17 164 1 l 169 183 l 38 183 q 25 269 25 221 q 38 354 25 318 l 207 354 l 254 567 l 113 567 q 99 653 99 604 q 113 738 99 701 l 293 738 l 331 904 q 427 919 367 919 q 519 904 488 919 l 482 738 l 647 738 m 443 567 l 396 354 l 561 354 l 608 567 l 443 567 z "},"$":{"ha":708,"x_min":31,"x_max":674,"o":"m 31 132 q 56 222 32 172 q 110 292 79 271 q 357 215 254 215 q 421 230 397 215 q 444 272 444 244 q 382 339 444 315 l 250 386 q 64 610 64 457 q 123 765 64 701 q 278 847 182 829 l 278 958 q 356 965 304 965 q 433 958 407 965 l 433 849 q 653 789 532 838 q 632 695 653 742 q 578 621 611 649 q 364 676 439 676 q 289 624 289 676 q 304 593 289 604 q 353 569 319 582 l 481 521 q 674 281 674 447 q 606 127 674 189 q 428 49 538 65 l 428 -57 q 350 -62 407 -62 q 272 -57 293 -62 l 272 49 q 31 132 121 69 z "},"%":{"ha":1375,"x_min":61,"x_max":1314,"o":"m 1075 -18 q 836 283 836 -18 q 900 513 836 442 q 1075 585 964 585 q 1251 510 1189 585 q 1314 281 1314 436 q 1251 53 1314 125 q 1075 -18 1188 -18 m 1128 403 q 1075 453 1117 453 q 1022 408 1033 453 q 1010 297 1010 364 q 1022 157 1010 200 q 1075 114 1035 114 q 1110 128 1097 114 q 1130 166 1124 143 q 1138 218 1136 189 q 1139 276 1139 247 q 1137 351 1139 325 q 1128 403 1135 376 m 539 667 q 300 364 539 364 q 122 437 183 364 q 61 665 61 510 q 80 809 61 751 q 131 902 99 867 q 206 952 163 938 q 300 967 250 967 q 476 895 413 967 q 539 667 539 824 m 300 496 q 353 539 340 496 q 365 644 365 582 q 362 741 365 704 q 351 799 358 778 q 331 827 344 819 q 300 835 318 835 q 248 791 260 835 q 236 676 236 747 q 238 606 236 639 q 245 549 239 574 q 264 510 251 524 q 300 496 276 496 m 321 0 l 846 949 q 936 957 883 957 q 1008 956 978 957 q 1054 949 1038 954 l 529 0 q 438 -8 492 -8 q 366 -7 396 -8 q 321 0 336 -6 z "},"&":{"ha":911,"x_min":56,"x_max":906,"o":"m 744 407 l 746 222 q 748 113 746 168 q 756 0 750 58 q 657 -12 724 -12 q 557 -3 588 -12 l 543 58 q 326 -21 453 -21 q 212 0 263 -21 q 126 56 161 21 q 74 138 92 92 q 56 238 56 185 q 106 413 56 343 q 232 506 157 482 q 133 584 169 528 q 96 715 96 640 q 179 901 96 832 q 408 969 263 969 q 476 967 429 969 q 572 956 524 964 q 693 922 619 947 q 678 828 693 868 q 638 760 664 788 q 451 799 522 799 q 324 697 324 799 q 461 589 324 589 l 731 589 q 878 617 814 589 q 906 515 906 581 q 775 407 906 407 l 744 407 m 532 321 q 532 370 532 349 q 533 407 532 392 l 444 407 q 282 269 282 407 q 312 177 282 207 q 389 147 342 147 q 532 200 471 147 l 532 321 z "},"'":{"ha":336,"x_min":56,"x_max":265,"o":"m 65 1081 q 161 1106 107 1106 q 257 1081 215 1106 q 265 1014 265 1043 q 256 936 265 985 q 214 683 224 764 q 161 672 196 672 q 108 683 126 672 q 78 864 101 743 q 56 1010 56 985 q 65 1081 56 1036 z "},"(":{"ha":521,"x_min":82,"x_max":493,"o":"m 493 -162 q 368 -275 453 -246 q 247 -126 300 -211 q 157 53 193 -42 q 101 249 121 149 q 82 447 82 350 q 101 645 82 544 q 157 841 121 746 q 247 1021 193 936 q 368 1171 300 1106 q 493 1058 453 1142 q 354 767 401 928 q 307 447 307 607 q 319 289 307 369 q 354 129 331 208 q 413 -24 378 50 q 493 -162 447 -99 z "},")":{"ha":521,"x_min":26,"x_max":439,"o":"m 26 1058 q 151 1171 65 1142 q 274 1020 219 1106 q 364 840 328 935 q 419 644 400 744 q 439 447 439 543 q 419 251 439 351 q 364 54 400 150 q 274 -126 328 -42 q 151 -275 219 -211 q 26 -162 65 -246 q 106 -26 71 -100 q 165 128 140 49 q 201 290 189 208 q 214 447 214 371 q 201 607 214 525 q 165 768 189 689 q 107 922 142 847 q 26 1058 72 996 z "},"*":{"ha":724,"x_min":47,"x_max":674,"o":"m 50 725 q 65 811 47 757 q 104 890 82 865 l 188 858 q 311 783 232 840 q 279 924 282 872 l 274 1014 q 360 1026 303 1026 q 447 1014 417 1026 l 443 924 q 410 782 440 876 q 535 856 479 832 l 618 889 q 656 811 639 864 q 672 725 674 758 l 585 701 q 440 689 542 689 q 549 593 511 638 l 606 525 q 544 463 589 497 q 467 422 499 429 l 417 497 q 361 631 393 533 q 303 499 333 544 l 256 424 q 178 463 224 431 q 115 525 132 496 l 172 594 q 281 689 203 632 q 138 703 185 689 l 50 725 z "},"+":{"ha":736,"x_min":64,"x_max":672,"o":"m 278 501 l 276 597 l 276 714 q 368 722 315 722 q 460 714 421 722 l 460 597 l 458 501 l 553 503 l 663 503 q 672 413 672 458 q 663 329 672 368 l 553 329 l 458 331 l 460 236 l 460 118 q 368 110 421 110 q 276 118 315 110 l 276 236 l 278 331 l 183 329 l 74 329 q 64 415 64 367 q 74 503 64 464 l 183 503 l 278 501 z "},",":{"ha":410,"x_min":29,"x_max":331,"o":"m 313 178 q 331 67 331 132 q 314 -33 331 17 q 265 -124 297 -82 q 187 -199 233 -167 q 82 -250 140 -232 q 43 -214 57 -239 q 31 -161 29 -189 l 31 -150 q 117 -96 81 -133 q 160 -11 153 -58 q 100 11 126 -7 q 86 53 89 36 q 83 93 83 69 q 100 178 83 139 q 157 199 135 194 q 207 203 179 203 q 313 178 268 203 z "},"-":{"ha":522,"x_min":57,"x_max":465,"o":"m 457 288 l 65 288 q 57 374 57 322 q 65 461 57 426 l 457 461 q 465 374 465 426 q 457 288 465 322 z "},".":{"ha":399,"x_min":74,"x_max":325,"o":"m 90 179 q 142 198 114 192 q 199 204 169 204 q 308 179 263 204 q 325 94 325 143 q 321 49 325 71 q 308 11 317 28 q 199 -15 269 -15 q 90 11 129 -15 q 78 49 82 28 q 74 94 74 71 q 90 179 74 143 z "},"/":{"ha":626,"x_min":1,"x_max":622,"o":"m 1 -96 l 438 1067 q 622 996 551 1051 l 186 -167 q 1 -96 72 -151 z "},":":{"ha":408,"x_min":79,"x_max":331,"o":"m 96 179 q 147 198 119 192 q 204 204 175 204 q 314 179 268 204 q 331 94 331 143 q 326 49 331 71 q 314 11 322 28 q 204 -15 275 -15 q 96 11 135 -15 q 83 49 88 28 q 79 94 79 71 q 96 179 79 143 m 96 608 q 147 627 119 621 q 204 633 175 633 q 314 608 268 633 q 331 524 331 572 q 326 478 331 500 q 314 440 322 457 q 204 414 275 414 q 96 440 135 414 q 83 478 88 457 q 79 524 79 500 q 96 608 79 572 z "},";":{"ha":414,"x_min":29,"x_max":333,"o":"m 313 178 q 331 67 331 132 q 314 -33 331 17 q 265 -124 297 -82 q 187 -199 233 -167 q 82 -250 140 -232 q 42 -214 56 -239 q 29 -161 29 -189 l 31 -150 q 117 -96 81 -133 q 160 -11 153 -58 q 100 11 131 -7 q 85 53 88 36 q 83 93 83 69 q 100 178 83 147 q 157 199 135 196 q 207 203 179 203 q 313 178 268 203 m 99 608 q 150 627 122 621 q 207 633 178 633 q 317 608 271 633 q 333 524 333 572 q 329 478 333 500 q 317 440 325 457 q 207 414 278 414 q 99 440 138 414 q 86 478 90 457 q 82 524 82 500 q 99 608 82 572 z "},"<":{"ha":736,"x_min":50,"x_max":663,"o":"m 71 497 l 564 769 q 633 699 604 746 q 663 601 661 653 l 407 471 q 289 421 358 444 l 289 410 q 407 360 358 386 l 663 229 q 630 129 658 178 q 563 60 601 81 l 71 333 q 71 497 50 417 z "},"=":{"ha":736,"x_min":64,"x_max":672,"o":"m 663 171 l 74 171 q 64 258 64 206 q 74 344 64 310 l 663 344 q 672 258 672 311 q 663 171 672 206 m 663 489 l 74 489 q 64 575 64 522 q 74 663 64 628 l 663 663 q 672 575 672 628 q 663 489 672 522 z "},">":{"ha":736,"x_min":74,"x_max":685,"o":"m 665 335 l 172 63 q 103 131 132 85 q 74 229 75 178 l 329 361 q 447 410 385 389 l 447 421 q 329 471 378 444 l 74 601 q 106 701 78 653 q 174 771 135 750 l 665 499 q 665 335 685 413 z "},"?":{"ha":583,"x_min":1,"x_max":575,"o":"m 1 890 q 281 971 136 971 q 501 901 426 971 q 575 717 575 831 q 529 558 575 625 q 393 442 483 490 l 310 397 l 296 292 q 258 283 279 285 q 215 281 238 281 q 171 283 192 281 q 133 292 150 285 l 121 499 l 138 519 l 215 554 q 317 624 286 589 q 349 699 349 658 q 320 759 349 733 q 239 785 292 785 q 167 774 207 785 q 81 735 128 763 q 51 764 65 746 q 27 803 38 782 q 10 847 17 824 q 1 890 3 869 m 113 167 q 217 189 160 189 q 263 185 242 189 q 318 167 285 182 q 335 85 335 135 q 318 3 335 33 q 268 -16 290 -12 q 217 -19 246 -19 q 113 3 151 -19 q 99 85 99 32 q 113 167 99 138 z "},"@":{"ha":1361,"x_min":54,"x_max":1317,"o":"m 967 571 l 965 228 q 1008 157 965 157 q 1104 417 1104 157 q 1076 574 1104 504 q 994 692 1047 643 q 866 767 942 740 q 697 793 790 793 q 524 757 603 793 q 388 657 444 721 q 301 504 332 593 q 269 310 269 415 q 371 -10 269 96 q 657 -117 472 -117 q 929 -65 796 -117 q 983 -212 983 -124 q 909 -239 951 -226 q 820 -261 867 -251 q 727 -276 774 -271 q 640 -282 681 -282 q 399 -245 507 -282 q 214 -135 290 -208 q 96 47 138 -62 q 54 301 54 156 q 103 565 54 444 q 239 771 153 685 q 442 905 325 857 q 696 953 560 953 q 946 915 832 953 q 1142 808 1060 878 q 1271 638 1225 739 q 1317 411 1317 538 q 1292 233 1317 310 q 1224 105 1267 157 q 1126 26 1182 53 q 1010 0 1071 0 q 815 82 886 0 q 619 -4 722 -4 q 457 83 515 -4 q 399 324 399 169 q 419 464 399 400 q 477 575 439 528 q 572 649 515 622 q 699 675 628 675 q 776 667 738 675 q 851 644 815 658 q 916 611 886 631 q 967 571 946 592 m 765 203 l 765 501 q 699 525 738 525 q 607 325 607 525 q 622 196 607 235 q 679 157 638 157 q 721 168 699 157 q 765 203 743 179 z "},"A":{"ha":886,"x_min":13,"x_max":875,"o":"m 336 199 q 281 200 299 199 l 221 -1 q 128 -10 188 -10 q 19 6 61 -10 l 13 17 l 318 949 q 444 957 372 957 q 575 947 526 957 l 875 14 q 765 -12 826 -12 q 664 13 693 -12 q 614 108 635 38 l 588 200 q 533 199 569 199 l 336 199 m 332 374 l 388 375 l 489 375 q 513 374 496 375 q 539 374 531 374 l 515 460 q 439 746 482 576 l 431 746 q 364 481 419 686 l 332 374 z "},"B":{"ha":854,"x_min":106,"x_max":806,"o":"m 115 951 q 308 956 228 954 q 436 957 388 957 q 674 894 588 957 q 761 704 761 831 q 726 590 761 643 q 638 514 692 538 q 703 478 672 503 q 757 422 735 454 q 792 351 779 389 q 806 272 806 313 q 715 60 806 129 q 457 -8 624 -8 q 321 -7 406 -8 q 115 -3 236 -6 l 106 7 l 106 942 l 115 951 m 440 418 l 325 418 l 325 147 q 406 147 361 149 q 490 154 451 146 q 556 194 529 163 q 582 283 582 226 q 548 378 582 338 q 440 418 514 418 m 325 800 l 325 576 l 424 576 q 517 609 490 576 q 544 689 544 642 q 517 767 544 736 q 424 799 489 799 q 367 799 392 799 q 325 800 343 799 z "},"C":{"ha":846,"x_min":50,"x_max":813,"o":"m 601 571 l 601 588 q 449 793 601 793 q 322 713 361 793 q 283 478 283 633 q 332 249 283 324 q 474 174 381 174 q 581 197 522 174 q 710 269 640 219 q 774 205 744 246 q 811 126 804 164 q 737 69 779 96 q 645 22 694 42 q 542 -9 596 3 q 435 -21 489 -21 q 254 20 328 -21 q 135 129 181 61 q 70 286 90 197 q 50 471 50 375 q 81 690 50 596 q 166 846 113 783 q 292 940 219 908 q 446 971 364 971 q 597 949 529 971 q 713 888 665 926 q 787 796 761 849 q 813 682 813 743 q 686 558 813 558 q 601 571 649 558 z "},"D":{"ha":926,"x_min":106,"x_max":875,"o":"m 719 61 q 603 8 675 25 q 443 -8 531 -8 q 319 -7 400 -8 q 115 -3 238 -6 l 106 7 l 106 942 l 115 951 q 283 956 196 954 q 465 957 369 957 q 663 919 583 957 q 789 817 742 882 q 856 663 836 751 q 875 474 875 575 q 843 233 875 335 q 719 61 811 132 m 464 165 q 647 474 647 165 q 464 783 647 783 q 385 783 419 783 q 326 785 351 783 l 326 164 q 385 165 351 165 q 464 165 419 165 z "},"E":{"ha":796,"x_min":104,"x_max":747,"o":"m 324 281 l 322 181 l 322 179 q 425 182 386 182 l 747 182 q 743 103 747 131 q 601 -4 726 -4 l 232 -4 q 138 31 172 -4 q 104 125 104 65 l 104 939 l 114 949 l 713 949 q 721 861 721 908 q 701 763 721 814 l 322 763 l 324 663 l 324 565 q 418 567 360 567 l 631 567 q 643 478 643 528 q 631 386 643 428 l 324 386 l 324 281 z "},"F":{"ha":743,"x_min":106,"x_max":718,"o":"m 326 760 l 328 651 l 328 564 l 625 564 q 636 473 636 522 q 625 382 636 424 l 328 382 l 328 0 q 217 -8 283 -8 q 106 0 150 -8 l 106 940 l 115 949 l 710 949 q 718 862 718 914 q 690 785 718 810 q 600 760 661 760 l 326 760 z "},"G":{"ha":908,"x_min":50,"x_max":838,"o":"m 472 539 l 690 540 q 838 401 838 540 l 838 36 q 461 -21 658 -21 q 284 13 361 -21 q 155 108 207 46 q 76 262 103 171 q 50 468 50 353 q 87 688 50 594 q 185 844 124 782 q 328 938 247 907 q 496 969 408 969 q 835 869 676 969 q 824 824 833 847 q 802 780 815 801 q 772 741 789 758 q 736 711 754 724 q 503 786 621 786 q 276 469 276 786 q 508 154 276 154 q 570 157 540 154 q 629 165 600 160 l 629 258 q 630 314 629 290 q 632 354 631 338 l 563 354 q 480 377 503 354 q 457 449 457 400 q 472 539 457 490 z "},"H":{"ha":953,"x_min":106,"x_max":847,"o":"m 626 581 l 625 683 l 625 949 q 737 957 668 957 q 847 949 806 957 l 847 0 q 736 -8 803 -8 q 625 0 669 -8 l 625 294 l 626 397 l 557 396 l 396 396 l 326 397 l 328 294 l 328 0 q 217 -8 285 -8 q 106 0 149 -8 l 106 949 q 217 957 149 957 q 328 949 285 957 l 328 683 l 326 581 l 396 582 l 557 582 l 626 581 z "},"I":{"ha":440,"x_min":108,"x_max":332,"o":"m 108 0 l 108 949 q 219 957 151 957 q 332 949 288 957 l 332 0 q 219 -8 288 -8 q 108 0 151 -8 z "},"J":{"ha":654,"x_min":14,"x_max":563,"o":"m 90 211 q 222 169 158 169 q 315 212 289 169 q 340 343 340 254 l 340 949 q 450 957 382 957 q 563 949 518 957 l 563 364 q 547 205 563 275 q 494 86 532 135 q 395 12 457 38 q 240 -14 333 -14 q 14 47 111 -14 q 90 211 29 143 z "},"K":{"ha":863,"x_min":106,"x_max":853,"o":"m 853 54 q 706 -12 806 -12 q 620 17 649 -12 q 571 115 592 46 l 518 278 q 468 371 497 343 q 389 399 439 399 q 328 396 372 399 l 328 0 q 217 -8 285 -8 q 106 0 149 -8 l 106 949 q 217 957 149 957 q 328 949 285 957 l 328 582 l 364 583 q 400 592 389 583 q 426 631 411 601 l 558 879 q 603 940 579 922 q 676 957 626 957 q 806 950 732 957 l 818 935 l 649 615 q 571 514 617 551 q 669 461 636 500 q 724 357 701 422 l 781 185 q 797 138 792 153 q 825 86 803 122 q 853 54 835 72 z "},"L":{"ha":725,"x_min":104,"x_max":697,"o":"m 457 188 l 697 188 q 690 92 697 132 q 646 24 683 53 q 547 -4 608 -4 l 233 -4 q 139 31 174 -4 q 104 125 104 65 l 104 949 l 114 958 l 196 958 q 326 817 326 958 l 326 182 q 457 188 388 188 z "},"M":{"ha":1157,"x_min":76,"x_max":1082,"o":"m 76 3 l 150 947 q 294 958 211 958 q 440 947 378 958 l 522 607 q 574 356 571 376 l 583 356 q 635 607 589 390 l 718 947 q 863 958 779 958 q 1008 947 946 958 l 1082 3 q 976 -8 1039 -8 q 872 -1 913 -8 l 850 385 q 839 706 840 615 l 831 706 l 693 140 q 578 132 643 132 q 464 140 514 132 l 328 706 l 318 706 q 307 385 318 582 l 286 -1 q 183 -8 246 -8 q 76 3 119 -8 z "},"N":{"ha":967,"x_min":106,"x_max":863,"o":"m 853 958 l 863 949 l 863 4 q 731 -8 807 -8 q 597 0 656 -8 l 379 497 q 300 693 340 582 l 296 692 q 313 276 313 489 l 313 0 q 208 -8 269 -8 q 106 0 147 -8 l 106 944 q 233 957 158 957 q 365 949 307 957 l 581 453 q 667 242 639 315 l 672 244 q 656 654 656 438 l 656 824 q 685 927 656 896 q 779 958 714 958 l 853 958 z "},"O":{"ha":926,"x_min":50,"x_max":876,"o":"m 311 258 q 463 150 349 150 q 555 178 519 150 q 610 251 590 207 q 638 349 631 294 q 644 456 644 403 q 641 564 644 504 q 621 676 638 624 q 568 763 604 728 q 463 799 532 799 q 360 765 396 799 q 308 681 325 731 q 286 574 290 631 q 282 475 282 518 q 288 361 282 411 q 311 258 294 311 m 199 67 q 50 474 50 190 q 78 688 50 596 q 160 843 107 781 q 290 938 214 906 q 463 969 367 969 q 635 938 558 969 q 766 842 713 906 q 848 687 819 779 q 876 474 876 594 q 848 260 876 353 q 766 106 819 168 q 635 11 713 43 q 463 -21 558 -21 q 199 67 304 -21 z "},"P":{"ha":818,"x_min":106,"x_max":778,"o":"m 438 297 l 328 297 l 328 0 q 217 -8 283 -8 q 106 0 149 -8 l 106 942 l 115 951 q 316 956 236 954 q 438 957 396 957 q 577 936 514 957 q 685 874 640 915 q 753 770 729 832 q 778 628 778 708 q 753 485 778 547 q 683 382 728 424 q 576 319 639 340 q 438 297 513 297 m 328 788 l 328 464 q 390 466 367 465 q 419 467 413 467 q 482 480 457 467 q 522 515 507 493 q 544 565 538 536 q 551 626 551 594 q 544 686 551 657 q 523 738 538 715 q 485 773 508 760 q 429 786 461 786 q 372 786 397 786 q 328 788 347 786 z "},"Q":{"ha":932,"x_min":50,"x_max":893,"o":"m 604 -144 l 463 -21 q 290 12 367 -21 q 160 108 214 44 q 78 263 107 171 q 50 474 50 354 q 77 683 50 592 q 158 839 104 775 q 288 936 211 903 q 465 969 365 969 q 643 935 565 969 q 774 838 721 901 q 853 682 826 774 q 881 474 881 590 q 867 324 881 394 q 828 198 854 254 q 766 103 803 142 q 682 47 729 64 l 718 22 q 893 -43 813 -43 q 851 -158 890 -114 q 740 -201 811 -201 q 604 -144 672 -201 m 465 799 q 278 474 278 799 q 465 150 278 150 q 650 474 650 150 q 465 799 650 799 z "},"R":{"ha":854,"x_min":106,"x_max":835,"o":"m 786 656 q 772 569 786 610 q 735 495 758 528 q 681 438 713 463 q 617 401 650 414 q 724 274 689 375 l 765 156 q 835 53 789 86 q 772 6 814 25 q 681 -12 731 -12 q 603 16 631 -12 q 551 115 575 44 l 501 261 q 460 325 486 303 q 383 347 435 347 l 326 347 l 326 0 q 215 -8 282 -8 q 106 0 149 -8 l 106 942 l 115 951 q 319 956 236 954 q 449 957 401 957 q 588 938 525 957 q 694 882 650 919 q 762 788 738 844 q 786 656 786 731 m 326 790 l 326 518 q 433 520 389 518 q 505 537 478 522 q 546 578 532 551 q 560 654 560 604 q 429 789 560 789 q 372 789 397 789 q 326 790 346 789 z "},"S":{"ha":774,"x_min":21,"x_max":738,"o":"m 21 82 q 49 174 25 128 q 107 249 74 219 q 389 158 256 158 q 474 185 447 158 q 501 250 501 211 q 414 353 501 315 l 250 422 q 103 526 154 465 q 51 679 51 586 q 77 796 51 743 q 149 888 103 849 q 260 948 196 926 q 401 969 324 969 q 715 890 557 969 q 640 724 708 783 q 390 792 499 792 q 307 767 335 792 q 279 710 279 742 q 361 622 279 656 l 528 551 q 685 438 633 507 q 738 276 738 368 q 714 157 738 211 q 644 63 690 103 q 528 1 597 24 q 365 -21 458 -21 q 21 82 185 -21 z "},"T":{"ha":708,"x_min":4,"x_max":711,"o":"m 465 765 l 467 663 l 467 0 q 354 -8 419 -8 q 244 0 289 -8 l 244 765 l 156 764 l 13 764 q 4 856 4 804 q 13 949 4 908 l 700 949 q 711 861 711 913 q 683 787 711 810 q 594 764 656 764 l 554 764 l 467 765 l 465 765 z "},"U":{"ha":935,"x_min":92,"x_max":843,"o":"m 843 949 l 843 350 q 746 76 843 172 q 468 -21 649 -21 q 190 76 288 -21 q 92 350 92 172 l 92 949 l 101 958 l 183 958 q 315 817 315 958 l 315 347 q 350 203 315 250 q 468 156 385 156 q 586 203 551 156 q 621 347 621 250 l 621 949 q 732 957 664 957 q 843 949 799 957 z "},"V":{"ha":842,"x_min":13,"x_max":831,"o":"m 440 186 l 622 949 q 708 957 656 957 q 822 942 781 957 l 831 931 l 571 0 q 412 -8 492 -8 q 297 12 332 -8 q 243 92 261 32 l 13 929 q 136 961 88 961 q 222 935 194 961 q 265 851 250 908 l 372 456 q 425 203 397 363 q 440 186 428 186 z "},"W":{"ha":1254,"x_min":21,"x_max":1226,"o":"m 185 92 l 21 936 q 139 961 88 961 q 224 935 197 961 q 261 839 250 910 l 319 481 q 353 256 346 319 q 362 189 360 192 q 371 186 364 186 l 486 931 q 629 940 538 940 q 771 931 721 940 l 876 204 q 881 189 878 192 q 892 186 885 186 q 933 482 904 317 l 1011 949 q 1104 957 1051 957 q 1217 942 1168 957 l 1226 929 l 1043 1 q 874 -8 953 -8 q 761 11 794 -8 q 718 92 728 31 l 671 393 q 631 715 646 557 l 621 715 q 575 393 606 581 l 513 1 q 341 -8 418 -8 q 231 11 264 -8 q 185 92 197 31 z "},"X":{"ha":856,"x_min":11,"x_max":844,"o":"m 601 949 q 694 957 636 957 q 810 938 761 957 l 815 928 l 554 499 l 844 35 q 713 -14 771 -14 q 619 6 651 -14 q 556 74 588 25 l 411 307 l 229 0 q 133 -8 194 -8 q 17 11 72 -8 l 11 22 l 297 489 l 33 914 q 165 963 107 963 q 258 943 226 963 q 319 875 289 924 l 442 678 l 601 949 z "},"Y":{"ha":753,"x_min":-3,"x_max":757,"o":"m 456 714 l 549 949 q 642 957 585 957 q 747 940 703 957 l 757 929 l 488 292 l 488 0 q 376 -8 444 -8 q 265 0 308 -8 l 265 297 l -3 922 q 119 960 61 960 q 203 940 178 960 q 249 871 229 919 l 315 706 q 378 507 351 617 l 386 507 q 456 714 408 594 z "},"Z":{"ha":806,"x_min":51,"x_max":753,"o":"m 79 215 l 388 639 q 500 776 435 707 l 496 781 q 281 768 397 768 l 82 768 q 74 845 74 800 q 89 949 74 890 l 704 949 q 735 802 735 833 q 710 735 735 771 l 400 310 q 292 179 353 243 l 296 175 q 504 185 435 185 l 582 185 q 738 217 665 185 q 753 114 753 168 q 713 30 753 60 q 607 0 674 0 l 76 0 q 51 144 51 111 q 79 215 51 176 z "},"[":{"ha":549,"x_min":136,"x_max":503,"o":"m 494 -215 l 149 -228 l 136 -217 l 136 1139 l 149 1150 l 494 1138 q 503 1074 503 1117 q 486 990 503 1031 l 347 986 l 347 -64 l 486 -68 q 503 -149 503 -104 q 494 -215 503 -194 z "},"\\":{"ha":626,"x_min":4,"x_max":625,"o":"m 440 -167 l 4 996 q 189 1067 79 1054 l 625 -96 q 440 -167 554 -151 z "},"]":{"ha":549,"x_min":46,"x_max":413,"o":"m 400 -228 l 53 -215 q 46 -147 46 -192 q 61 -68 46 -101 l 201 -64 l 201 986 l 61 990 q 46 1070 46 1026 q 53 1138 46 1114 l 400 1150 l 413 1139 l 413 -217 l 400 -228 z "},"^":{"ha":736,"x_min":39,"x_max":697,"o":"m 483 900 l 697 425 q 594 415 657 415 q 490 425 532 415 l 425 590 q 374 739 410 628 l 363 739 q 311 590 326 628 l 246 425 q 142 415 204 415 q 39 425 79 415 l 253 900 q 367 910 289 910 q 483 900 444 910 z "},"_":{"ha":785,"x_min":-11,"x_max":796,"o":"m 786 -246 l -1 -246 q -11 -165 -11 -214 q -1 -83 -11 -117 l 786 -83 q 796 -165 796 -124 q 786 -246 796 -207 z "},"`":{"ha":553,"x_min":74,"x_max":419,"o":"m 204 1069 l 419 835 q 383 782 408 806 q 331 751 358 758 l 74 944 q 124 1020 85 983 q 204 1069 164 1057 z "},"a":{"ha":713,"x_min":42,"x_max":672,"o":"m 672 100 q 646 38 665 71 q 606 -11 626 4 q 456 63 508 -8 q 260 -21 365 -21 q 165 -3 206 -21 q 97 43 125 14 q 56 110 69 72 q 42 190 42 149 q 63 295 42 250 q 122 370 85 340 q 210 415 160 400 q 317 431 260 431 q 373 430 349 431 q 415 428 397 429 l 415 454 q 325 542 415 542 q 121 497 267 542 q 68 649 79 546 q 142 672 101 661 q 226 692 183 683 q 311 705 269 700 q 386 710 353 710 q 480 696 435 710 q 559 653 525 682 q 613 580 593 625 q 633 472 633 535 l 633 190 q 672 100 633 126 m 253 204 q 328 139 253 139 q 415 179 367 139 l 415 290 q 369 292 388 292 q 340 293 350 293 q 253 204 253 293 z "},"b":{"ha":743,"x_min":83,"x_max":701,"o":"m 83 35 l 83 1013 l 93 1022 l 175 1022 q 267 993 239 1022 q 294 892 294 964 l 294 660 q 456 707 367 707 q 640 608 578 707 q 701 343 701 510 q 676 199 701 264 q 607 86 651 133 q 499 13 563 39 q 358 -12 435 -12 q 83 35 200 -12 m 390 533 q 294 488 336 533 l 294 149 q 324 144 308 146 q 358 143 340 143 q 479 353 479 143 q 390 533 479 532 z "},"c":{"ha":660,"x_min":42,"x_max":624,"o":"m 429 386 l 429 404 q 413 517 429 482 q 350 553 396 553 q 282 505 301 553 q 263 346 263 457 q 270 253 263 290 q 292 192 278 215 q 329 159 307 169 q 382 149 351 149 q 453 163 414 149 q 536 207 492 176 q 562 187 549 200 q 586 157 575 174 q 606 122 597 140 q 618 86 614 103 q 499 8 572 38 q 349 -21 425 -21 q 121 76 200 -21 q 42 353 42 174 q 67 513 42 444 q 135 625 93 581 q 233 692 178 669 q 347 714 288 714 q 459 697 408 714 q 547 650 510 681 q 603 577 583 619 q 624 483 624 535 q 590 401 624 425 q 506 378 556 378 q 429 386 464 378 z "},"d":{"ha":749,"x_min":44,"x_max":701,"o":"m 322 707 q 451 676 389 707 l 451 1013 l 460 1022 l 544 1022 q 637 993 611 1022 q 663 892 663 964 l 663 200 q 701 100 663 126 q 675 38 694 71 q 635 -11 656 4 q 486 67 533 -8 q 286 -21 403 -21 q 107 76 169 -21 q 44 343 44 174 q 66 494 44 426 q 125 608 88 561 q 213 681 163 656 q 322 707 264 707 m 350 154 q 451 208 407 154 l 451 513 q 361 546 394 546 q 267 338 267 546 q 350 154 267 154 z "},"e":{"ha":690,"x_min":42,"x_max":642,"o":"m 624 276 l 261 276 q 293 179 264 214 q 389 144 322 144 q 466 154 422 144 q 567 186 510 164 q 624 58 613 139 q 351 -21 513 -21 q 205 7 264 -21 q 109 85 146 35 q 57 203 72 135 q 42 351 42 271 q 60 495 42 429 q 117 610 79 561 q 215 686 156 658 q 353 714 274 714 q 473 692 419 714 q 564 631 526 669 q 622 538 601 592 q 642 419 642 483 q 624 276 642 335 m 260 426 l 443 426 l 443 442 q 420 526 443 493 q 351 560 397 560 q 285 528 307 560 q 260 426 264 497 z "},"f":{"ha":497,"x_min":-6,"x_max":561,"o":"m 122 0 l 122 542 l 3 540 q -6 617 -6 575 q 3 694 -6 658 l 111 693 q 104 786 104 744 q 172 959 104 890 q 347 1028 239 1028 q 560 989 456 1028 q 547 910 561 953 q 513 846 533 868 q 406 865 447 865 q 313 769 313 865 q 318 692 313 729 l 500 694 q 508 617 508 658 q 500 540 508 575 l 333 543 l 333 0 q 229 -8 286 -8 q 122 0 172 -8 z "},"g":{"ha":744,"x_min":44,"x_max":703,"o":"m 506 649 q 636 704 553 701 q 678 654 658 688 q 703 593 699 621 q 664 493 664 567 l 664 126 q 644 -85 664 -1 q 583 -219 624 -169 q 479 -287 542 -268 q 332 -307 417 -307 q 71 -261 189 -307 q 86 -176 71 -222 q 124 -104 101 -131 q 313 -146 217 -146 q 453 -6 453 -146 l 453 40 q 294 -14 378 -14 q 108 84 171 -14 q 44 350 44 182 q 66 502 44 435 q 125 617 88 569 q 212 689 163 664 q 317 714 261 714 q 506 649 429 714 m 453 208 l 453 506 q 361 553 404 553 q 267 344 267 553 q 349 161 267 161 q 453 208 406 161 z "},"h":{"ha":754,"x_min":83,"x_max":710,"o":"m 675 458 l 675 174 q 710 36 675 81 q 582 -11 657 -11 q 483 22 510 -11 q 457 124 457 56 l 457 419 q 444 489 457 467 q 396 511 432 511 q 349 500 375 511 q 294 464 322 489 l 294 0 q 189 -8 249 -8 q 83 0 129 -8 l 83 1013 l 93 1022 l 176 1022 q 269 993 243 1022 q 294 892 294 964 l 294 629 q 481 706 388 706 q 624 638 574 706 q 675 458 675 571 z "},"i":{"ha":414,"x_min":21,"x_max":333,"o":"m 333 533 l 333 0 q 282 -6 310 -4 q 225 -8 254 -8 q 167 -6 196 -8 q 115 0 139 -4 l 115 460 q 50 540 115 540 l 29 540 q 21 614 21 567 q 29 692 21 660 q 96 697 65 694 q 151 699 126 699 l 182 699 q 293 654 253 699 q 333 533 333 610 m 90 972 q 194 994 131 994 q 296 972 260 994 q 313 892 313 935 q 296 811 313 849 q 190 790 256 790 q 90 811 125 790 q 74 892 74 849 q 90 972 74 935 z "},"j":{"ha":422,"x_min":17,"x_max":342,"o":"m 342 533 l 342 40 q 331 -99 342 -40 q 290 -198 319 -157 q 208 -265 260 -239 q 75 -306 156 -290 q 35 -249 51 -287 q 17 -174 18 -211 q 70 -145 49 -160 q 104 -111 92 -131 q 122 -66 117 -92 q 128 -4 128 -40 l 128 460 q 63 540 128 540 l 29 540 q 22 576 24 557 q 19 615 19 596 q 29 692 19 658 q 103 697 69 694 q 163 699 136 699 l 193 699 q 301 654 261 699 q 342 533 342 610 m 94 972 q 199 994 135 994 q 300 972 264 994 q 317 892 317 935 q 300 811 317 849 q 194 790 260 790 q 94 811 129 790 q 78 892 78 849 q 94 972 78 935 z "},"k":{"ha":726,"x_min":83,"x_max":717,"o":"m 615 276 l 650 175 q 717 57 678 83 q 571 -11 656 -11 q 501 10 525 -11 q 460 86 478 32 l 418 206 q 386 263 404 249 q 338 278 368 278 q 294 276 307 278 l 294 0 q 189 -8 249 -8 q 83 0 129 -8 l 83 1013 l 93 1022 l 176 1022 q 268 993 242 1022 q 294 892 294 964 l 294 456 l 317 456 q 356 481 342 456 l 428 619 q 550 699 467 699 q 671 696 590 699 l 679 685 l 572 478 q 501 396 544 425 q 615 276 585 365 z "},"l":{"ha":435,"x_min":82,"x_max":408,"o":"m 354 158 l 392 158 q 408 67 408 113 q 404 7 408 21 q 256 -7 321 -7 q 122 40 161 -7 q 82 186 82 86 l 82 1013 l 90 1022 l 175 1022 q 267 993 240 1022 q 293 892 293 964 l 293 224 q 354 158 293 158 z "},"m":{"ha":1122,"x_min":83,"x_max":1078,"o":"m 454 418 q 392 511 454 511 q 347 498 369 511 q 300 464 324 485 l 300 0 q 249 -6 276 -4 q 192 -8 221 -8 q 135 -6 163 -8 q 83 0 107 -4 l 83 693 l 93 703 l 174 703 q 290 615 263 703 q 482 706 389 706 q 644 610 594 706 q 850 706 753 706 q 995 645 947 706 q 1043 485 1043 585 l 1043 174 q 1078 36 1043 83 q 951 -11 1025 -11 q 853 22 879 -11 q 826 124 826 56 l 826 419 q 761 511 826 511 q 672 463 721 511 l 672 0 q 621 -6 649 -4 q 564 -8 593 -8 q 506 -6 535 -8 q 454 0 478 -4 l 454 418 z "},"n":{"ha":760,"x_min":83,"x_max":714,"o":"m 681 458 l 681 174 q 714 36 681 82 q 588 -11 661 -11 q 489 22 515 -11 q 463 124 463 56 l 463 419 q 450 489 463 467 q 401 511 438 511 q 354 500 381 511 q 300 464 328 489 l 300 0 q 249 -6 276 -4 q 192 -8 221 -8 q 135 -6 163 -8 q 83 0 107 -4 l 83 693 l 93 703 l 175 703 q 289 619 260 703 q 482 706 386 706 q 630 638 579 706 q 681 458 681 571 z "},"o":{"ha":725,"x_min":42,"x_max":683,"o":"m 583 632 q 683 346 683 532 q 662 194 683 263 q 599 78 640 126 q 499 5 558 31 q 361 -21 439 -21 q 224 6 283 -21 q 124 80 165 32 q 63 196 83 128 q 42 346 42 264 q 63 497 42 429 q 124 613 83 564 q 224 688 164 661 q 361 714 283 714 q 583 632 499 714 m 363 551 q 313 537 332 551 q 283 497 294 522 q 268 440 272 472 q 264 369 264 407 q 267 269 264 311 q 281 198 271 226 q 310 156 292 169 q 360 142 329 142 q 440 195 421 142 q 460 347 460 249 q 440 499 460 447 q 363 551 421 551 z "},"p":{"ha":747,"x_min":83,"x_max":703,"o":"m 424 -14 q 296 15 360 -14 l 296 -169 q 269 -271 296 -242 q 176 -300 243 -300 l 93 -300 l 83 -290 l 83 693 l 93 703 l 150 703 q 268 635 229 703 q 461 714 347 714 q 564 688 519 714 q 640 615 608 663 q 687 501 671 568 q 703 351 703 435 q 681 200 703 268 q 622 85 660 132 q 534 12 585 38 q 424 -14 483 -14 m 397 540 q 296 485 339 540 l 296 179 q 386 147 349 147 q 481 357 481 147 q 397 540 481 540 z "},"q":{"ha":749,"x_min":44,"x_max":701,"o":"m 451 -169 l 451 39 q 294 -14 379 -14 q 108 84 171 -14 q 44 350 44 182 q 67 502 44 435 q 126 617 89 569 q 212 689 163 664 q 315 714 261 714 q 504 650 428 714 q 636 704 553 703 q 656 683 646 696 q 676 656 667 671 q 692 624 685 640 q 701 593 699 607 q 663 493 663 564 l 663 -290 l 653 -300 l 568 -300 q 478 -271 504 -300 q 451 -169 451 -242 m 349 161 q 451 207 406 161 l 451 507 q 361 553 401 553 q 267 344 267 553 q 349 161 267 161 z "},"r":{"ha":551,"x_min":42,"x_max":550,"o":"m 42 593 q 68 655 49 621 q 107 704 88 689 q 285 578 235 694 q 458 703 338 703 q 550 692 494 703 q 535 590 550 649 q 496 489 521 531 q 425 503 472 497 q 311 432 356 503 l 311 0 q 203 -8 265 -8 q 94 0 142 -8 l 94 449 q 42 593 94 553 z "},"s":{"ha":615,"x_min":28,"x_max":585,"o":"m 28 47 q 47 126 29 83 q 88 194 64 169 q 281 136 199 136 q 340 149 319 136 q 361 185 361 163 q 297 247 361 226 l 221 276 q 47 485 47 340 q 120 652 47 590 q 317 714 193 714 q 451 697 378 714 q 572 656 525 679 q 557 570 575 617 q 513 504 539 524 q 318 557 396 557 q 276 544 290 557 q 261 513 261 532 q 314 460 261 479 l 400 429 q 585 206 585 364 q 508 40 585 101 q 290 -21 432 -21 q 28 47 149 -21 z "},"t":{"ha":521,"x_min":-7,"x_max":497,"o":"m 489 694 q 497 617 497 656 q 489 540 497 578 l 324 543 l 324 224 q 385 158 324 158 l 463 158 q 481 67 481 108 q 475 7 481 25 q 286 -7 372 -7 q 111 186 111 -7 l 111 542 l 3 540 q -7 616 -7 575 q 3 694 -7 657 l 111 692 l 111 772 q 138 873 111 843 q 229 903 165 903 l 314 903 l 324 893 l 324 692 l 489 694 z "},"u":{"ha":763,"x_min":46,"x_max":715,"o":"m 79 235 l 79 519 q 46 658 79 610 q 171 704 97 704 q 271 671 244 704 q 297 569 297 638 l 297 275 q 308 204 297 226 q 367 182 319 182 q 460 229 413 182 l 460 693 q 567 701 506 701 q 676 693 628 701 l 676 199 q 715 97 676 124 q 689 37 708 69 q 649 -11 669 4 q 485 86 535 -7 q 278 -12 375 -12 q 130 55 181 -12 q 79 235 79 122 z "},"v":{"ha":667,"x_min":-7,"x_max":665,"o":"m 346 165 l 467 692 q 554 700 506 700 q 658 683 614 700 l 665 674 q 472 0 524 157 q 323 -8 401 -8 q 211 13 244 -8 q 160 96 178 35 l -7 676 q 114 706 61 706 q 196 683 167 706 q 239 604 225 660 l 301 344 q 332 176 308 318 q 346 165 333 165 z "},"w":{"ha":1050,"x_min":7,"x_max":1044,"o":"m 142 93 l 7 681 q 125 706 75 706 q 199 683 176 706 q 231 613 221 661 l 274 389 q 310 172 304 238 q 321 160 311 160 l 397 686 q 525 696 446 696 q 651 686 604 696 l 729 172 q 740 160 731 160 q 778 389 765 325 l 840 692 q 931 701 874 701 q 1038 683 1001 701 l 1044 669 l 882 0 q 743 -8 831 -8 q 625 11 656 -8 q 586 90 594 31 l 564 239 q 528 501 543 368 l 519 501 q 483 242 518 490 l 444 0 q 297 -8 378 -8 q 185 13 217 -8 q 142 93 154 33 z "},"x":{"ha":668,"x_min":3,"x_max":671,"o":"m 450 693 q 539 701 486 701 q 642 686 592 701 l 647 672 l 451 369 l 671 36 q 528 -12 599 -12 q 410 53 451 -12 l 319 190 l 208 0 q 117 -8 182 -8 q 10 8 53 -8 l 3 21 l 215 353 l 18 660 q 165 707 85 707 q 228 691 204 707 q 275 639 251 675 l 349 525 l 450 693 z "},"y":{"ha":690,"x_min":-1,"x_max":683,"o":"m 683 671 l 513 18 q 406 -212 472 -132 q 171 -304 329 -304 q 3 -276 86 -304 q 11 -192 -1 -239 q 46 -121 24 -146 q 171 -142 108 -142 q 307 -29 274 -142 l 313 -10 q 168 78 192 -10 l 7 676 q 126 706 71 706 q 208 685 182 706 q 246 613 233 664 l 310 346 q 342 163 319 308 q 353 153 343 153 l 474 692 q 564 701 507 701 q 675 686 628 701 l 683 671 z "},"z":{"ha":625,"x_min":35,"x_max":593,"o":"m 65 186 l 229 406 q 342 536 275 467 l 338 543 q 165 532 235 532 l 58 532 q 50 603 50 565 q 63 693 50 640 l 546 693 q 575 574 575 608 q 554 510 575 539 l 383 283 q 279 158 318 197 l 283 151 q 393 160 344 160 l 442 160 q 571 183 524 160 q 593 96 593 129 q 478 0 593 0 l 58 0 q 35 108 35 67 q 65 186 35 149 z "},"{":{"ha":554,"x_min":53,"x_max":544,"o":"m 63 524 q 146 577 113 533 q 179 676 179 621 l 179 899 q 240 1067 179 1004 q 404 1146 301 1129 l 496 1161 q 531 1092 517 1138 q 538 1021 544 1046 l 453 992 q 414 960 431 985 q 397 897 397 935 l 397 679 q 363 546 397 607 q 275 461 329 485 l 275 450 q 363 365 329 426 q 397 232 397 304 l 397 13 q 414 -50 397 -25 q 453 -82 431 -75 l 538 -111 q 531 -181 544 -136 q 496 -250 517 -226 l 404 -236 q 240 -156 301 -219 q 179 11 179 -93 l 179 235 q 146 333 179 289 q 63 386 113 376 q 53 456 53 413 q 63 524 53 499 z "},"|":{"ha":375,"x_min":86,"x_max":289,"o":"m 86 -197 l 86 1074 q 187 1083 124 1083 q 289 1074 250 1083 l 289 -197 q 187 -207 250 -207 q 86 -197 124 -207 z "},"}":{"ha":554,"x_min":10,"x_max":501,"o":"m 492 524 q 501 456 501 499 q 492 386 501 413 q 407 333 440 376 q 374 235 374 290 l 374 11 q 313 -156 374 -93 q 150 -236 251 -219 l 57 -250 q 23 -181 36 -226 q 17 -111 10 -136 l 100 -82 q 140 -50 124 -75 q 157 13 157 -25 l 157 232 q 190 365 157 304 q 279 450 224 426 l 279 461 q 190 545 224 485 q 157 679 157 606 l 157 897 q 140 960 157 935 q 100 992 124 985 l 17 1021 q 23 1092 10 1046 q 57 1161 36 1138 l 150 1146 q 313 1067 251 1129 q 374 899 374 1004 l 374 676 q 407 577 374 621 q 492 524 440 533 z "},"~":{"ha":878,"x_min":43,"x_max":835,"o":"m 418 535 l 535 482 q 594 467 568 467 q 633 475 614 467 q 672 504 651 483 l 707 540 q 744 531 725 538 q 782 513 764 524 q 814 488 800 503 q 835 457 828 474 l 807 410 q 709 303 765 338 q 583 268 653 268 q 460 297 526 268 l 344 349 q 310 360 325 357 q 283 364 294 363 q 207 328 240 364 l 172 290 q 97 316 135 293 q 43 374 58 339 l 71 421 q 294 564 156 564 q 418 535 353 564 z "},"¡":{"ha":428,"x_min":89,"x_max":338,"o":"m 303 401 l 332 -208 q 101 -268 251 -268 l 89 -253 l 138 401 q 221 411 168 411 q 303 401 274 411 m 324 522 q 218 499 279 499 q 172 502 193 499 q 118 522 150 506 q 101 603 99 561 q 115 682 101 640 q 170 705 149 701 q 218 708 192 708 q 324 685 279 708 q 338 603 338 658 q 324 522 338 549 z "},"¢":{"ha":643,"x_min":35,"x_max":610,"o":"m 257 -46 l 257 92 q 155 138 197 106 q 86 219 113 171 q 47 328 60 267 q 35 460 35 389 q 98 694 35 606 q 261 808 161 782 l 261 947 q 336 954 286 954 q 417 947 386 954 l 417 813 q 557 737 504 794 q 610 600 610 679 q 494 482 610 482 q 417 492 447 482 q 336 658 417 658 q 272 608 289 658 q 256 447 256 558 q 285 301 256 349 q 371 254 315 254 q 525 313 433 254 q 574 260 550 294 q 606 194 599 225 q 413 90 536 115 l 413 -46 q 333 -51 392 -51 q 257 -46 274 -51 z "},"£":{"ha":749,"x_min":54,"x_max":711,"o":"m 340 507 l 575 508 q 586 432 586 479 q 575 354 586 385 q 360 356 431 354 q 289 171 347 251 l 293 167 q 540 176 419 176 l 711 176 q 707 106 711 133 q 660 26 699 54 q 561 -3 622 -3 l 90 -3 q 65 141 65 108 q 90 208 65 174 l 108 235 q 165 354 156 311 l 65 354 q 54 432 54 385 q 65 508 54 479 l 140 508 q 92 664 92 606 q 172 842 92 763 q 397 921 253 921 q 565 888 486 921 q 693 808 644 854 q 654 728 686 767 q 582 676 622 690 q 413 743 500 743 q 333 717 364 743 q 303 644 303 692 q 310 590 303 613 q 328 540 318 567 q 340 507 339 513 z "},"¤":{"ha":821,"x_min":31,"x_max":789,"o":"m 126 303 q 88 463 88 371 q 126 622 88 554 l 31 729 q 140 839 67 794 l 253 738 q 404 771 319 771 q 564 738 489 771 l 681 843 q 789 733 749 799 l 690 621 q 731 463 731 551 q 689 300 731 372 l 786 193 q 676 83 743 122 l 560 186 q 407 156 497 156 q 256 186 318 156 l 140 85 q 31 194 82 118 l 126 303 m 300 463 q 325 356 300 396 q 408 315 350 315 q 518 463 518 315 q 408 611 518 611 q 300 463 300 611 z "},"¥":{"ha":761,"x_min":21,"x_max":746,"o":"m 686 207 l 483 207 l 483 0 q 377 -8 440 -8 q 271 0 314 -8 l 271 207 l 71 207 q 60 272 60 242 q 71 340 60 303 l 263 340 l 221 432 l 71 432 q 60 497 60 467 q 71 565 60 528 l 161 565 l 21 876 q 147 915 96 915 q 220 899 199 915 q 257 843 242 882 l 319 689 q 382 503 344 631 l 390 503 q 458 693 418 601 l 549 900 q 634 910 585 910 q 738 897 683 910 l 746 886 l 596 565 l 686 565 q 696 498 696 526 q 686 432 696 469 l 533 432 l 490 340 l 686 340 q 696 273 696 301 q 686 207 696 244 z "},"¦":{"ha":367,"x_min":83,"x_max":283,"o":"m 83 -197 l 83 340 q 183 350 121 350 q 283 340 244 350 l 283 -197 q 183 -207 244 -207 q 83 -197 121 -207 m 83 536 l 83 1074 q 183 1083 121 1083 q 283 1074 244 1083 l 283 536 q 183 526 244 526 q 83 536 121 526 z "},"§":{"ha":694,"x_min":38,"x_max":660,"o":"m 660 432 q 522 226 660 314 q 614 63 614 160 q 594 -28 614 14 q 537 -99 574 -69 q 447 -147 500 -129 q 326 -164 393 -164 q 86 -106 192 -164 l 86 -96 q 91 -56 86 -76 q 103 -16 96 -35 q 122 18 111 3 q 144 42 132 33 q 331 -7 258 -7 q 382 6 363 -7 q 401 42 401 19 q 344 100 401 76 l 265 133 q 97 234 156 179 q 38 376 38 289 q 172 579 38 492 q 82 742 82 644 q 102 833 82 792 q 158 905 122 875 q 244 952 194 935 q 354 969 294 969 q 589 918 478 969 l 589 908 q 584 870 589 890 q 571 831 579 850 q 552 797 563 813 q 529 771 542 781 q 365 813 429 813 q 315 799 335 813 q 296 764 296 786 q 310 732 296 744 q 351 708 324 719 l 432 675 q 601 574 542 629 q 660 432 660 518 m 321 510 l 308 514 q 243 415 243 474 q 276 352 243 379 q 375 299 308 325 l 388 293 q 454 393 454 335 q 321 510 454 457 z "},"¨":{"ha":553,"x_min":35,"x_max":518,"o":"m 326 797 q 314 867 314 826 q 326 935 314 906 q 415 957 367 957 q 507 935 463 957 q 518 865 518 904 q 507 797 518 828 q 464 779 488 785 q 415 774 440 774 q 368 779 392 774 q 326 797 344 785 m 46 797 q 37 831 39 813 q 35 867 35 849 q 37 903 35 886 q 46 935 39 919 q 138 957 88 957 q 226 935 186 957 q 239 865 239 906 q 226 797 239 826 q 184 779 207 785 q 138 774 161 774 q 89 779 113 774 q 46 797 65 785 z "},"©":{"ha":1096,"x_min":43,"x_max":1053,"o":"m 188 114 q 43 474 43 261 q 82 673 43 581 q 189 833 121 765 q 349 940 257 901 q 547 979 440 979 q 745 940 653 979 q 906 833 838 901 q 1014 672 975 764 q 1053 474 1053 579 q 1014 275 1053 367 q 907 115 975 183 q 747 8 839 47 q 547 -31 654 -31 q 188 114 335 -31 m 301 731 q 206 474 206 626 q 231 331 206 397 q 303 217 257 265 q 411 140 349 168 q 547 113 474 113 q 684 140 621 113 q 793 217 747 168 q 865 333 839 267 q 890 474 890 399 q 864 616 890 550 q 792 731 838 682 q 683 808 746 779 q 547 836 621 836 q 301 731 399 836 m 608 506 q 544 625 608 625 q 475 479 475 625 q 578 335 475 335 q 692 378 619 335 q 728 336 711 364 q 749 283 746 308 q 710 253 733 267 q 659 228 686 239 q 603 212 632 218 q 550 206 575 206 q 434 229 481 206 q 360 290 388 253 q 321 376 332 328 q 310 475 310 425 q 330 595 310 544 q 383 679 350 646 q 458 728 415 713 q 546 744 500 744 q 699 699 642 744 q 757 582 757 653 q 668 497 757 497 q 608 506 629 497 z "},"ª":{"ha":635,"x_min":54,"x_max":583,"o":"m 583 479 q 561 424 581 451 q 518 383 542 396 q 393 442 440 383 q 233 376 315 376 q 158 390 192 376 q 102 427 125 404 q 67 481 79 450 q 54 549 54 513 q 117 692 54 643 q 279 740 181 740 q 308 740 289 740 q 356 738 326 739 l 356 771 q 275 833 356 833 q 126 801 238 833 q 82 918 86 844 q 340 969 210 969 q 419 958 382 969 q 484 922 456 946 q 529 863 513 899 q 546 776 546 826 l 546 556 q 583 479 546 496 m 357 538 q 356 569 356 544 l 356 625 q 318 627 333 626 q 296 628 303 628 q 228 560 228 628 q 242 523 228 540 q 283 506 257 506 q 357 538 315 506 z "},"«":{"ha":857,"x_min":31,"x_max":814,"o":"m 807 568 l 638 358 l 814 144 q 767 78 804 111 q 694 36 729 44 l 413 293 q 403 354 403 318 q 413 415 403 390 l 692 679 q 762 637 726 671 q 807 568 797 603 m 436 568 l 267 358 l 443 144 q 396 78 433 111 q 324 36 358 44 l 42 293 q 31 354 31 318 q 42 415 31 390 l 321 679 q 391 637 356 671 q 436 568 426 603 z "},"¬":{"ha":736,"x_min":57,"x_max":665,"o":"m 482 338 l 386 336 l 67 336 q 57 422 57 369 q 67 510 57 475 l 656 510 l 665 500 l 665 174 q 577 165 631 165 q 481 174 524 165 l 481 250 l 482 338 z "},"­":{"ha":522,"x_min":57,"x_max":465,"o":"m 457 288 l 65 288 q 57 374 57 322 q 65 461 57 426 l 457 461 q 465 374 465 426 q 457 288 465 322 z "},"®":{"ha":836,"x_min":38,"x_max":799,"o":"m 147 382 q 38 653 38 492 q 67 801 38 732 q 147 922 96 871 q 268 1003 199 974 q 417 1033 338 1033 q 565 1003 496 1033 q 687 922 635 974 q 769 801 739 871 q 799 653 799 732 q 769 504 799 574 q 688 383 739 435 q 566 302 636 332 q 417 272 496 272 q 147 382 257 272 m 235 842 q 163 653 163 765 q 182 549 163 597 q 235 464 201 500 q 316 407 269 428 q 417 386 363 386 q 519 407 472 386 q 600 465 565 428 q 654 550 635 501 q 674 653 674 599 q 654 756 674 707 q 600 841 635 804 q 519 899 565 878 q 417 919 472 919 q 235 842 308 919 m 276 832 l 426 836 q 535 808 501 836 q 568 736 568 779 q 548 671 568 694 q 499 640 528 647 q 544 590 524 631 l 560 560 q 593 518 574 531 q 521 479 563 479 q 484 490 501 479 q 456 522 467 500 l 426 582 q 389 606 414 606 l 381 606 l 381 486 q 356 482 369 483 q 326 481 342 481 q 297 482 311 481 q 272 486 282 483 l 272 829 l 276 832 m 381 756 l 381 688 l 411 688 q 454 724 454 688 q 415 756 454 756 l 381 756 z "},"¯":{"ha":553,"x_min":53,"x_max":500,"o":"m 490 794 l 64 794 q 53 871 53 832 q 64 949 53 910 l 490 949 q 500 871 500 908 q 490 794 500 833 z "},"°":{"ha":488,"x_min":19,"x_max":467,"o":"m 243 490 q 153 507 194 490 q 83 553 113 524 q 36 623 53 582 q 19 713 19 664 q 36 803 19 763 q 83 874 53 844 q 154 921 114 904 q 243 938 194 938 q 333 921 292 938 q 403 874 374 904 q 450 803 433 844 q 467 713 467 761 q 450 623 467 664 q 403 553 433 582 q 333 507 374 524 q 243 490 292 490 m 243 803 q 190 778 210 803 q 169 713 169 754 q 190 648 169 672 q 243 624 210 624 q 296 648 276 624 q 315 713 315 672 q 296 778 315 754 q 243 803 276 803 z "},"±":{"ha":736,"x_min":81,"x_max":656,"o":"m 281 583 l 279 683 l 279 767 q 369 775 315 775 q 458 767 422 775 l 458 683 q 457 583 458 683 l 549 585 l 649 585 q 656 508 656 546 q 649 429 656 469 l 549 429 l 457 431 l 458 333 l 458 249 q 369 240 422 240 q 279 249 315 240 l 279 333 l 281 431 l 188 429 l 88 429 q 81 508 81 469 q 88 585 81 547 l 188 585 l 281 583 m 649 0 l 88 0 q 81 81 81 39 q 88 163 81 122 l 649 163 q 656 81 656 122 q 649 0 656 39 z "},"²":{"ha":583,"x_min":53,"x_max":514,"o":"m 514 599 q 492 478 514 517 q 404 440 469 440 l 111 440 l 96 460 q 65 506 76 483 q 53 550 53 528 q 144 696 53 622 l 269 801 q 298 833 289 817 q 307 869 307 849 q 293 905 307 890 q 256 919 279 919 q 217 900 233 919 q 194 854 200 881 q 158 859 178 854 q 118 872 138 864 q 83 891 99 881 q 60 913 67 901 q 133 1031 74 983 q 283 1079 192 1079 q 368 1065 329 1079 q 435 1024 407 1050 q 480 962 464 999 q 496 882 496 925 q 467 774 494 825 q 383 682 440 724 l 304 624 q 272 602 293 615 q 243 583 250 589 q 324 594 288 590 q 393 599 361 599 l 514 599 z "},"³":{"ha":583,"x_min":53,"x_max":504,"o":"m 444 888 l 382 838 q 349 815 369 826 q 460 758 417 807 q 504 640 504 710 q 435 492 504 547 q 268 436 365 436 q 53 504 135 436 q 125 622 67 574 q 231 579 186 579 q 317 647 317 579 q 299 694 317 675 q 246 714 281 714 q 208 707 239 714 q 165 745 188 715 q 136 800 142 775 l 225 878 q 290 925 236 888 l 286 931 q 176 922 249 922 l 85 922 q 75 996 75 953 q 89 1069 75 1039 l 444 1069 q 483 965 483 1008 q 444 888 483 921 z "},"´":{"ha":553,"x_min":144,"x_max":490,"o":"m 144 835 l 360 1069 q 439 1020 400 1057 q 490 944 478 983 l 233 751 q 180 782 206 758 q 144 835 154 806 z "},"¶":{"ha":1043,"x_min":36,"x_max":1028,"o":"m 383 89 l 383 328 l 367 328 q 234 348 294 328 q 130 408 174 368 q 61 508 86 447 q 36 647 36 568 q 60 785 36 726 q 129 881 85 843 q 237 938 174 919 q 379 957 300 957 q 438 955 386 957 q 590 950 490 953 l 600 940 l 600 132 q 526 -135 600 -49 q 279 -221 451 -221 q 230 -219 264 -221 q 162 -212 196 -217 q 101 -200 128 -207 q 75 -183 75 -193 q 88 -104 75 -149 q 119 -31 100 -60 q 265 -60 204 -60 q 353 -26 324 -60 q 383 89 383 8 m 685 -181 l 685 939 l 694 949 l 1017 949 q 1028 856 1028 915 q 1017 763 1028 796 l 979 763 q 948 763 967 763 q 904 765 929 764 l 904 -181 q 793 -190 865 -190 q 685 -181 722 -190 z "},"·":{"ha":457,"x_min":111,"x_max":347,"o":"m 126 483 q 174 502 147 496 q 229 508 201 508 q 332 483 288 508 q 347 399 347 444 q 332 315 347 350 q 229 289 293 289 q 126 315 165 289 q 115 353 118 332 q 111 399 111 375 q 115 442 111 421 q 126 483 118 464 z "},"¸":{"ha":553,"x_min":142,"x_max":454,"o":"m 188 -108 q 224 0 197 -60 l 335 0 q 314 -44 325 -17 q 416 -82 378 -47 q 454 -176 454 -117 q 440 -233 454 -207 q 399 -280 425 -260 q 340 -311 374 -300 q 267 -322 306 -322 q 142 -289 188 -322 q 176 -196 143 -233 q 247 -214 203 -214 q 292 -175 292 -214 q 278 -143 292 -154 q 247 -133 264 -132 q 218 -139 231 -135 q 188 -108 193 -128 z "},"¹":{"ha":583,"x_min":47,"x_max":532,"o":"m 47 863 q 166 955 124 910 q 242 1068 208 1000 q 322 1075 293 1075 q 410 1068 351 1075 l 410 599 l 522 599 q 532 519 532 565 q 522 443 532 474 l 96 443 q 89 521 89 482 q 96 599 89 560 l 235 599 l 235 715 q 240 832 235 740 q 128 753 204 788 q 76 800 99 768 q 47 863 53 832 z "},"º":{"ha":633,"x_min":57,"x_max":576,"o":"m 492 439 q 317 375 429 375 q 203 398 251 375 q 122 460 154 421 q 73 554 89 500 q 57 672 57 608 q 73 790 57 736 q 122 884 89 844 q 203 947 154 924 q 317 969 251 969 q 431 947 382 969 q 512 884 479 924 q 560 790 544 844 q 576 672 576 736 q 492 439 576 522 m 317 833 q 236 672 236 833 q 317 511 236 511 q 397 672 397 511 q 317 833 397 833 z "},"»":{"ha":857,"x_min":43,"x_max":825,"o":"m 49 146 l 218 356 l 43 569 q 90 638 53 604 q 163 679 126 671 l 443 422 q 454 360 454 397 q 443 299 454 324 l 164 36 q 94 78 129 44 q 49 146 60 113 m 419 146 l 589 356 l 414 569 q 460 638 424 604 q 533 679 497 671 l 814 422 q 825 360 825 397 q 814 299 825 324 l 535 36 q 465 78 500 44 q 419 146 431 113 z "},"¼":{"ha":1464,"x_min":38,"x_max":1418,"o":"m 38 744 q 156 837 114 792 q 232 950 199 882 q 313 957 283 957 q 400 950 342 957 l 400 481 l 513 481 q 522 401 522 447 q 513 325 522 356 l 86 325 q 79 403 79 364 q 86 481 79 442 l 225 481 l 225 597 q 231 714 225 622 q 118 635 194 669 q 66 682 89 650 q 38 744 43 714 m 413 0 l 938 949 q 1051 958 983 958 q 1146 949 1118 957 l 621 0 q 508 -9 576 -10 q 413 0 440 -8 m 1385 107 l 1340 108 l 1340 13 q 1256 4 1307 4 q 1169 13 1204 4 l 1169 36 l 1171 108 l 1093 106 l 949 106 q 910 204 910 169 q 929 283 910 239 l 1088 642 q 1179 635 1128 646 q 1260 604 1231 624 l 1188 446 q 1081 250 1128 308 l 1083 247 q 1169 253 1131 253 l 1169 296 q 1202 391 1169 357 q 1294 425 1235 425 l 1335 425 l 1342 419 l 1342 358 l 1340 254 l 1413 254 q 1418 190 1418 228 q 1406 107 1418 153 l 1385 107 z "},"½":{"ha":1464,"x_min":38,"x_max":1406,"o":"m 38 744 q 156 837 114 792 q 232 950 199 882 q 313 957 283 957 q 400 950 342 957 l 400 481 l 513 481 q 522 401 522 447 q 513 325 522 356 l 86 325 q 79 403 79 364 q 86 481 79 442 l 225 481 l 225 597 q 231 714 225 622 q 118 635 194 669 q 66 682 89 650 q 38 744 43 714 m 396 0 l 921 949 q 1034 958 967 958 q 1129 949 1101 957 l 604 0 q 492 -9 560 -10 q 396 0 424 -8 m 1406 168 q 1383 48 1406 86 q 1296 10 1361 10 l 1003 10 l 988 29 q 956 75 968 53 q 944 119 944 97 q 1036 265 944 192 l 1161 371 q 1190 402 1181 386 q 1199 439 1199 418 q 1185 474 1199 460 q 1147 489 1171 489 q 1108 469 1125 489 q 1086 424 1092 450 q 1049 428 1069 424 q 1010 442 1029 433 q 974 460 990 450 q 951 482 958 471 q 1024 601 965 553 q 1175 649 1083 649 q 1260 634 1221 649 q 1327 594 1299 619 q 1372 531 1356 568 q 1388 451 1388 494 q 1359 344 1386 394 q 1275 251 1332 293 l 1196 193 q 1163 172 1185 185 q 1135 153 1142 158 q 1216 164 1179 160 q 1285 168 1253 168 l 1406 168 z "},"¾":{"ha":1464,"x_min":58,"x_max":1390,"o":"m 450 771 l 388 721 q 354 699 375 710 q 466 642 422 690 q 510 524 510 593 q 440 375 510 431 q 274 319 371 319 q 58 388 140 319 q 131 506 72 457 q 236 463 192 463 q 322 531 322 463 q 304 578 322 558 q 251 597 286 597 q 214 590 244 597 q 170 628 193 599 q 142 683 147 658 l 231 761 q 296 808 242 771 l 292 814 q 182 806 254 806 l 90 806 q 81 879 81 836 q 94 953 81 922 l 450 953 q 489 848 489 892 q 450 771 489 804 m 374 0 l 899 949 q 1012 958 944 958 q 1107 949 1079 957 l 582 0 q 469 -9 538 -10 q 374 0 401 -8 m 1357 107 l 1313 108 l 1313 13 q 1228 4 1279 4 q 1142 13 1176 4 l 1142 36 l 1143 108 l 1065 106 l 921 106 q 882 204 882 169 q 901 283 882 239 l 1060 642 q 1151 635 1100 646 q 1232 604 1203 624 l 1160 446 q 1053 250 1100 308 l 1056 247 q 1142 253 1103 253 l 1142 296 q 1174 391 1142 357 q 1267 425 1207 425 l 1307 425 l 1314 419 l 1314 358 l 1313 254 l 1385 254 q 1390 190 1390 228 q 1378 107 1390 153 l 1357 107 z "},"¿":{"ha":583,"x_min":19,"x_max":592,"o":"m 592 -201 q 315 -282 461 -282 q 94 -212 168 -282 q 19 -29 19 -142 q 65 129 21 60 q 201 247 110 199 l 285 290 l 299 397 q 335 404 315 401 q 378 407 356 407 q 421 404 400 407 q 461 397 442 401 l 474 190 l 456 168 l 379 133 q 277 66 308 101 q 246 -10 246 31 q 272 -70 246 -44 q 351 -96 299 -96 q 424 -85 383 -96 q 514 -47 464 -74 q 542 -76 529 -58 q 566 -114 556 -93 q 583 -158 576 -135 q 592 -201 590 -181 m 275 522 q 260 603 260 550 q 275 685 260 649 q 328 705 307 701 q 378 708 350 708 q 426 705 404 708 q 481 685 449 701 q 496 603 496 647 q 481 522 496 557 q 426 502 449 506 q 378 499 404 499 q 275 522 315 499 z "},"À":{"ha":886,"x_min":13,"x_max":875,"o":"m 336 199 q 281 200 299 199 l 221 -1 q 128 -10 188 -10 q 19 6 61 -10 l 13 17 l 318 949 q 444 957 372 957 q 575 947 526 957 l 875 14 q 765 -12 826 -12 q 664 13 693 -12 q 614 108 635 38 l 588 200 q 533 199 569 199 l 336 199 m 332 374 l 388 375 l 489 375 q 513 374 496 375 q 539 374 531 374 l 515 460 q 439 746 482 576 l 431 746 q 364 481 419 686 l 332 374 m 322 1304 l 633 1114 q 572 1010 621 1039 l 238 1140 q 267 1233 240 1185 q 322 1304 294 1282 z "},"Á":{"ha":886,"x_min":13,"x_max":875,"o":"m 336 199 q 281 200 299 199 l 221 -1 q 128 -10 188 -10 q 19 6 61 -10 l 13 17 l 318 949 q 444 957 372 957 q 575 947 526 957 l 875 14 q 765 -12 826 -12 q 664 13 693 -12 q 614 108 635 38 l 588 200 q 533 199 569 199 l 336 199 m 332 374 l 388 375 l 489 375 q 513 374 496 375 q 539 374 531 374 l 515 460 q 439 746 482 576 l 431 746 q 364 481 419 686 l 332 374 m 274 1114 l 585 1304 q 640 1234 613 1282 q 669 1140 667 1186 l 336 1010 q 296 1053 314 1022 q 274 1114 278 1083 z "},"Â":{"ha":886,"x_min":13,"x_max":875,"o":"m 336 199 q 281 200 299 199 l 221 -1 q 128 -10 188 -10 q 19 6 61 -10 l 13 17 l 318 949 q 444 957 372 957 q 575 947 526 957 l 875 14 q 765 -12 826 -12 q 664 13 693 -12 q 614 108 635 38 l 588 200 q 533 199 569 199 l 336 199 m 332 374 l 388 375 l 489 375 q 513 374 496 375 q 539 374 531 374 l 515 460 q 439 746 482 576 l 431 746 q 364 481 419 686 l 332 374 m 607 1021 l 444 1124 l 278 1004 q 225 1040 253 1014 q 190 1094 197 1067 l 354 1263 q 535 1264 440 1282 l 693 1111 q 658 1056 683 1081 q 607 1021 632 1031 z "},"Ã":{"ha":886,"x_min":13,"x_max":875,"o":"m 336 199 q 281 200 299 199 l 221 -1 q 128 -10 188 -10 q 19 6 61 -10 l 13 17 l 318 949 q 444 957 372 957 q 575 947 526 957 l 875 14 q 765 -12 826 -12 q 664 13 693 -12 q 614 108 635 38 l 588 200 q 533 199 569 199 l 336 199 m 332 374 l 388 375 l 489 375 q 513 374 496 375 q 539 374 531 374 l 515 460 q 439 746 482 576 l 431 746 q 364 481 419 686 l 332 374 m 449 1054 l 383 1085 q 363 1094 374 1090 q 342 1097 353 1097 q 315 1090 328 1097 q 289 1064 301 1083 l 278 1047 q 213 1066 246 1047 q 169 1113 181 1085 l 182 1139 q 354 1261 240 1261 q 446 1236 401 1261 l 511 1204 q 531 1195 521 1199 q 551 1192 540 1192 q 578 1199 564 1192 q 606 1225 593 1206 l 617 1243 q 681 1224 649 1243 q 725 1178 714 1206 l 713 1151 q 540 1029 654 1029 q 449 1054 496 1029 z "},"Ä":{"ha":886,"x_min":13,"x_max":875,"o":"m 336 199 q 281 200 299 199 l 221 -1 q 128 -10 188 -10 q 19 6 61 -10 l 13 17 l 318 949 q 444 957 372 957 q 575 947 526 957 l 875 14 q 765 -12 826 -12 q 664 13 693 -12 q 614 108 635 38 l 588 200 q 533 199 569 199 l 336 199 m 332 374 l 388 375 l 489 375 q 513 374 496 375 q 539 374 531 374 l 515 460 q 439 746 482 576 l 431 746 q 364 481 419 686 l 332 374 m 524 1185 q 614 1208 571 1208 q 648 1205 631 1208 q 696 1185 665 1201 q 713 1115 714 1156 q 699 1049 713 1082 q 653 1026 675 1031 q 614 1021 631 1021 q 578 1024 597 1021 q 524 1044 560 1028 q 504 1115 504 1068 q 524 1185 504 1163 m 201 1185 q 282 1208 238 1208 q 318 1205 297 1208 q 376 1182 339 1201 q 390 1115 392 1150 q 374 1044 390 1063 q 282 1021 328 1021 q 247 1025 264 1021 q 201 1044 229 1029 q 185 1115 182 1078 q 201 1185 185 1164 z "},"Å":{"ha":886,"x_min":13,"x_max":875,"o":"m 565 949 l 575 947 l 875 14 q 760 -12 828 -12 q 703 -7 726 -12 q 664 13 681 -1 q 635 49 647 26 q 614 108 624 72 l 588 200 q 565 199 578 199 q 533 199 551 199 l 336 199 q 303 199 317 199 q 281 200 290 199 l 221 -1 q 124 -10 188 -10 q 19 6 63 -10 l 13 17 l 318 949 q 326 950 325 949 q 251 1094 251 997 q 266 1165 251 1132 q 306 1222 281 1197 q 367 1259 332 1246 q 444 1272 403 1272 q 526 1259 490 1272 q 589 1222 563 1246 q 629 1167 615 1199 q 643 1097 643 1135 q 565 949 643 1001 m 332 374 l 489 375 q 513 374 496 375 q 539 374 531 374 l 515 460 q 479 590 499 518 q 439 746 460 661 l 431 746 q 364 481 421 689 l 332 374 m 397 1144 q 379 1094 379 1125 q 398 1043 379 1063 q 447 1024 417 1024 q 497 1045 479 1024 q 515 1094 515 1067 q 496 1144 515 1122 q 447 1165 476 1165 q 420 1160 433 1165 q 397 1144 407 1156 z "},"Æ":{"ha":1232,"x_min":7,"x_max":1183,"o":"m 756 283 l 754 181 l 754 179 q 857 182 815 182 l 1183 182 q 1179 103 1183 131 q 1038 -4 1160 -4 l 667 -4 q 575 31 608 -4 q 542 125 542 65 l 542 200 q 493 199 524 199 l 371 199 q 314 200 333 199 l 231 0 q 124 -8 197 -8 q 14 7 50 -8 l 7 18 l 417 929 q 551 949 457 949 l 1149 949 q 1156 859 1156 907 q 1138 763 1156 811 l 754 763 l 756 663 l 756 565 q 850 567 792 567 l 1065 567 q 1079 478 1079 529 q 1065 386 1079 426 l 756 386 l 756 283 m 492 372 l 542 371 l 542 746 l 535 746 q 431 479 489 615 l 385 371 l 432 372 l 492 372 z "},"Ç":{"ha":846,"x_min":50,"x_max":813,"o":"m 353 -108 q 365 -62 358 -85 q 381 -18 372 -40 q 228 35 290 -8 q 126 144 165 78 q 68 295 86 211 q 50 471 50 379 q 81 690 50 596 q 166 846 113 783 q 292 940 219 908 q 446 971 364 971 q 597 949 529 971 q 713 888 665 926 q 787 796 761 849 q 813 682 813 743 q 686 558 813 558 q 601 571 649 558 l 601 588 q 449 793 601 793 q 322 713 361 793 q 283 478 283 633 q 332 249 283 324 q 474 174 381 174 q 581 197 522 174 q 710 269 640 219 q 774 205 744 246 q 811 126 804 164 q 672 33 757 72 q 492 -17 588 -7 l 481 -44 q 583 -82 544 -47 q 621 -176 621 -117 q 606 -232 621 -206 q 566 -278 592 -258 q 506 -310 540 -299 q 432 -322 471 -322 q 307 -289 353 -322 q 343 -196 310 -232 q 407 -214 369 -214 q 457 -175 457 -214 q 444 -143 457 -151 q 413 -135 431 -135 q 383 -139 397 -135 q 353 -108 363 -129 z "},"È":{"ha":796,"x_min":104,"x_max":747,"o":"m 324 281 l 322 181 l 322 179 q 425 182 386 182 l 747 182 q 743 103 747 131 q 601 -4 726 -4 l 232 -4 q 138 31 172 -4 q 104 125 104 65 l 104 939 l 114 949 l 713 949 q 721 861 721 908 q 701 763 721 814 l 322 763 l 324 663 l 324 565 q 418 567 360 567 l 631 567 q 643 478 643 528 q 631 386 643 428 l 324 386 l 324 281 m 290 1304 l 601 1114 q 540 1010 589 1039 l 206 1140 q 235 1233 208 1185 q 290 1304 263 1282 z "},"É":{"ha":796,"x_min":104,"x_max":747,"o":"m 324 281 l 322 181 l 322 179 q 425 182 386 182 l 747 182 q 743 103 747 131 q 601 -4 726 -4 l 232 -4 q 138 31 172 -4 q 104 125 104 65 l 104 939 l 114 949 l 713 949 q 721 861 721 908 q 701 763 721 814 l 322 763 l 324 663 l 324 565 q 418 567 360 567 l 631 567 q 643 478 643 528 q 631 386 643 428 l 324 386 l 324 281 m 242 1114 l 553 1304 q 608 1234 581 1282 q 638 1140 635 1186 l 304 1010 q 264 1053 282 1022 q 242 1114 246 1083 z "},"Ê":{"ha":796,"x_min":104,"x_max":747,"o":"m 324 281 l 322 181 l 322 179 q 425 182 386 182 l 747 182 q 743 103 747 131 q 601 -4 726 -4 l 232 -4 q 138 31 172 -4 q 104 125 104 65 l 104 939 l 114 949 l 713 949 q 721 861 721 908 q 701 763 721 814 l 322 763 l 324 663 l 324 565 q 418 567 360 567 l 631 567 q 643 478 643 528 q 631 386 643 428 l 324 386 l 324 281 m 575 1021 l 413 1124 l 246 1004 q 193 1040 221 1014 q 158 1094 165 1067 l 322 1263 q 503 1264 408 1282 l 661 1111 q 626 1056 651 1081 q 575 1021 600 1031 z "},"Ë":{"ha":796,"x_min":104,"x_max":747,"o":"m 324 281 l 322 181 l 322 179 q 425 182 386 182 l 747 182 q 743 103 747 131 q 601 -4 726 -4 l 232 -4 q 138 31 172 -4 q 104 125 104 65 l 104 939 l 114 949 l 713 949 q 721 861 721 908 q 701 763 721 814 l 322 763 l 324 663 l 324 565 q 418 567 360 567 l 631 567 q 643 478 643 528 q 631 386 643 428 l 324 386 l 324 281 m 492 1185 q 582 1208 539 1208 q 616 1205 599 1208 q 664 1185 633 1201 q 681 1115 682 1156 q 667 1049 681 1082 q 621 1026 643 1031 q 582 1021 599 1021 q 547 1024 565 1021 q 492 1044 528 1028 q 472 1115 472 1068 q 492 1185 472 1163 m 169 1185 q 250 1208 206 1208 q 286 1205 265 1208 q 344 1182 307 1201 q 358 1115 360 1150 q 342 1044 358 1063 q 250 1021 296 1021 q 215 1025 232 1021 q 169 1044 197 1029 q 153 1115 150 1078 q 169 1185 153 1164 z "},"Ì":{"ha":440,"x_min":11,"x_max":407,"o":"m 108 0 l 108 949 q 219 957 151 957 q 332 949 288 957 l 332 0 q 219 -8 288 -8 q 108 0 151 -8 m 96 1304 l 407 1114 q 346 1010 394 1039 l 11 1140 q 41 1233 14 1185 q 96 1304 68 1282 z "},"Í":{"ha":440,"x_min":47,"x_max":443,"o":"m 108 0 l 108 949 q 219 957 151 957 q 332 949 288 957 l 332 0 q 219 -8 288 -8 q 108 0 151 -8 m 47 1114 l 358 1304 q 413 1234 386 1282 q 443 1140 440 1186 l 110 1010 q 69 1053 88 1022 q 47 1114 51 1083 z "},"Î":{"ha":440,"x_min":-36,"x_max":467,"o":"m 108 0 l 108 949 q 219 957 151 957 q 332 949 288 957 l 332 0 q 219 -8 288 -8 q 108 0 151 -8 m 381 1021 l 218 1124 l 51 1004 q -1 1040 26 1014 q -36 1094 -29 1067 l 128 1263 q 308 1264 214 1282 l 467 1111 q 431 1056 457 1081 q 381 1021 406 1031 z "},"Ï":{"ha":440,"x_min":-46,"x_max":486,"o":"m 108 0 l 108 949 q 219 957 151 957 q 332 949 288 957 l 332 0 q 219 -8 288 -8 q 108 0 151 -8 m 296 1185 q 386 1208 343 1208 q 420 1205 403 1208 q 468 1185 438 1201 q 485 1115 486 1156 q 471 1049 485 1082 q 425 1026 447 1031 q 386 1021 403 1021 q 351 1024 369 1021 q 296 1044 332 1028 q 276 1115 276 1068 q 296 1185 276 1163 m -26 1185 q 54 1208 10 1208 q 90 1205 69 1208 q 149 1182 111 1201 q 163 1115 164 1150 q 146 1044 163 1063 q 54 1021 100 1021 q 19 1025 36 1021 q -26 1044 1 1029 q -43 1115 -46 1078 q -26 1185 -43 1164 z "},"Ð":{"ha":947,"x_min":24,"x_max":896,"o":"m 740 61 q 624 8 696 25 q 465 -8 553 -8 q 340 -7 421 -8 q 136 -3 258 -6 l 126 7 l 126 392 l 33 392 q 24 479 24 421 q 33 571 24 538 l 126 571 l 126 942 l 136 951 q 304 956 217 954 q 488 957 392 957 q 685 919 607 957 q 811 816 764 882 q 877 662 858 750 q 896 474 896 574 q 864 233 896 333 q 740 61 832 132 m 519 392 l 343 392 l 343 164 q 403 165 367 165 q 486 165 439 165 q 668 474 668 165 q 486 783 668 783 q 403 783 439 783 q 343 785 367 783 l 343 571 l 519 571 q 528 481 528 535 q 519 392 528 425 z "},"Ñ":{"ha":967,"x_min":106,"x_max":863,"o":"m 853 958 l 863 949 l 863 4 q 731 -8 807 -8 q 597 0 656 -8 l 379 497 q 300 693 340 582 l 296 692 q 313 276 313 489 l 313 0 q 208 -8 269 -8 q 106 0 147 -8 l 106 944 q 233 957 158 957 q 365 949 307 957 l 581 453 q 667 242 639 315 l 672 244 q 656 654 656 438 l 656 824 q 685 927 656 896 q 779 958 714 958 l 853 958 m 490 1054 l 425 1085 q 405 1094 415 1090 q 383 1097 394 1097 q 356 1090 369 1097 q 331 1064 343 1083 l 319 1047 q 255 1066 288 1047 q 211 1113 222 1085 l 224 1139 q 396 1261 282 1261 q 488 1236 443 1261 l 553 1204 q 572 1195 563 1199 q 593 1192 582 1192 q 620 1199 606 1192 q 647 1225 635 1206 l 658 1243 q 723 1224 690 1243 q 767 1178 756 1206 l 754 1151 q 582 1029 696 1029 q 490 1054 538 1029 z "},"Ò":{"ha":926,"x_min":50,"x_max":876,"o":"m 311 258 q 463 150 349 150 q 555 178 519 150 q 610 251 590 207 q 638 349 631 294 q 644 456 644 403 q 641 564 644 504 q 621 676 638 624 q 568 763 604 728 q 463 799 532 799 q 360 765 396 799 q 308 681 325 731 q 286 574 290 631 q 282 475 282 518 q 288 361 282 411 q 311 258 294 311 m 199 67 q 50 474 50 190 q 78 688 50 596 q 160 843 107 781 q 290 938 214 906 q 463 969 367 969 q 635 938 558 969 q 766 842 713 906 q 848 687 819 779 q 876 474 876 594 q 848 260 876 353 q 766 106 819 168 q 635 11 713 43 q 463 -21 558 -21 q 199 67 304 -21 m 338 1304 l 649 1114 q 588 1010 636 1039 l 253 1140 q 283 1233 256 1185 q 338 1304 310 1282 z "},"Ó":{"ha":926,"x_min":50,"x_max":876,"o":"m 311 258 q 463 150 349 150 q 555 178 519 150 q 610 251 590 207 q 638 349 631 294 q 644 456 644 403 q 641 564 644 504 q 621 676 638 624 q 568 763 604 728 q 463 799 532 799 q 360 765 396 799 q 308 681 325 731 q 286 574 290 631 q 282 475 282 518 q 288 361 282 411 q 311 258 294 311 m 199 67 q 50 474 50 190 q 78 688 50 596 q 160 843 107 781 q 290 938 214 906 q 463 969 367 969 q 635 938 558 969 q 766 842 713 906 q 848 687 819 779 q 876 474 876 594 q 848 260 876 353 q 766 106 819 168 q 635 11 713 43 q 463 -21 558 -21 q 199 67 304 -21 m 289 1114 l 600 1304 q 655 1234 628 1282 q 685 1140 682 1186 l 351 1010 q 311 1053 329 1022 q 289 1114 293 1083 z "},"Ô":{"ha":926,"x_min":50,"x_max":876,"o":"m 311 258 q 463 150 349 150 q 555 178 519 150 q 610 251 590 207 q 638 349 631 294 q 644 456 644 403 q 641 564 644 504 q 621 676 638 624 q 568 763 604 728 q 463 799 532 799 q 360 765 396 799 q 308 681 325 731 q 286 574 290 631 q 282 475 282 518 q 288 361 282 411 q 311 258 294 311 m 199 67 q 50 474 50 190 q 78 688 50 596 q 160 843 107 781 q 290 938 214 906 q 463 969 367 969 q 635 938 558 969 q 766 842 713 906 q 848 687 819 779 q 876 474 876 594 q 848 260 876 353 q 766 106 819 168 q 635 11 713 43 q 463 -21 558 -21 q 199 67 304 -21 m 622 1021 l 460 1124 l 293 1004 q 240 1040 268 1014 q 206 1094 213 1067 l 369 1263 q 550 1264 456 1282 l 708 1111 q 673 1056 699 1081 q 622 1021 647 1031 z "},"Õ":{"ha":926,"x_min":50,"x_max":876,"o":"m 311 258 q 463 150 349 150 q 555 178 519 150 q 610 251 590 207 q 638 349 631 294 q 644 456 644 403 q 641 564 644 504 q 621 676 638 624 q 568 763 604 728 q 463 799 532 799 q 360 765 396 799 q 308 681 325 731 q 286 574 290 631 q 282 475 282 518 q 288 361 282 411 q 311 258 294 311 m 199 67 q 50 474 50 190 q 78 688 50 596 q 160 843 107 781 q 290 938 214 906 q 463 969 367 969 q 635 938 558 969 q 766 842 713 906 q 848 687 819 779 q 876 474 876 594 q 848 260 876 353 q 766 106 819 168 q 635 11 713 43 q 463 -21 558 -21 q 199 67 304 -21 m 454 1054 l 389 1085 q 369 1094 379 1090 q 347 1097 358 1097 q 320 1090 333 1097 q 294 1064 307 1083 l 283 1047 q 219 1066 251 1047 q 175 1113 186 1085 l 188 1139 q 360 1261 246 1261 q 451 1236 407 1261 l 517 1204 q 536 1195 526 1199 q 557 1192 546 1192 q 584 1199 569 1192 q 611 1225 599 1206 l 622 1243 q 687 1224 654 1243 q 731 1178 719 1206 l 718 1151 q 546 1029 660 1029 q 454 1054 501 1029 z "},"Ö":{"ha":926,"x_min":50,"x_max":876,"o":"m 311 258 q 463 150 349 150 q 555 178 519 150 q 610 251 590 207 q 638 349 631 294 q 644 456 644 403 q 641 564 644 504 q 621 676 638 624 q 568 763 604 728 q 463 799 532 799 q 360 765 396 799 q 308 681 325 731 q 286 574 290 631 q 282 475 282 518 q 288 361 282 411 q 311 258 294 311 m 199 67 q 50 474 50 190 q 78 688 50 596 q 160 843 107 781 q 290 938 214 906 q 463 969 367 969 q 635 938 558 969 q 766 842 713 906 q 848 687 819 779 q 876 474 876 594 q 848 260 876 353 q 766 106 819 168 q 635 11 713 43 q 463 -21 558 -21 q 199 67 304 -21 m 538 1185 q 628 1208 585 1208 q 662 1205 644 1208 q 710 1185 679 1201 q 726 1115 728 1156 q 713 1049 726 1082 q 667 1026 689 1031 q 628 1021 644 1021 q 592 1024 611 1021 q 538 1044 574 1028 q 518 1115 518 1068 q 538 1185 518 1163 m 215 1185 q 296 1208 251 1208 q 332 1205 311 1208 q 390 1182 353 1201 q 404 1115 406 1150 q 388 1044 404 1063 q 296 1021 342 1021 q 260 1025 278 1021 q 215 1044 243 1029 q 199 1115 196 1078 q 215 1185 199 1164 z "},"×":{"ha":736,"x_min":79,"x_max":656,"o":"m 367 290 l 204 126 q 131 181 163 149 q 79 254 99 213 l 243 415 l 79 578 q 135 656 100 622 q 204 704 169 690 l 308 601 l 367 540 l 529 703 q 598 656 564 689 q 656 578 632 622 l 492 415 l 656 254 q 604 180 633 210 q 529 128 575 150 l 426 232 l 367 290 z "},"Ø":{"ha":926,"x_min":50,"x_max":881,"o":"m 175 90 q 50 488 50 221 q 78 688 50 599 q 158 839 106 776 q 288 935 211 901 q 465 969 365 969 q 624 944 553 969 l 688 1054 q 824 979 774 1039 l 756 858 q 881 475 881 726 q 772 108 881 238 q 465 -21 664 -21 q 306 4 378 -21 l 244 -101 q 108 -26 156 -86 l 175 90 m 660 475 q 642 644 660 576 l 389 160 q 465 143 422 143 q 660 475 660 143 m 272 475 q 290 306 272 372 l 542 789 q 465 806 504 806 q 272 475 272 806 z "},"Ù":{"ha":935,"x_min":92,"x_max":843,"o":"m 843 949 l 843 350 q 746 76 843 172 q 468 -21 649 -21 q 190 76 288 -21 q 92 350 92 172 l 92 949 l 101 958 l 183 958 q 315 817 315 958 l 315 347 q 350 203 315 250 q 468 156 385 156 q 586 203 551 156 q 621 347 621 250 l 621 949 q 732 957 664 957 q 843 949 799 957 m 339 1304 l 650 1114 q 589 1010 638 1039 l 254 1140 q 284 1233 257 1185 q 339 1304 311 1282 z "},"Ú":{"ha":935,"x_min":92,"x_max":843,"o":"m 843 949 l 843 350 q 746 76 843 172 q 468 -21 649 -21 q 190 76 288 -21 q 92 350 92 172 l 92 949 l 101 958 l 183 958 q 315 817 315 958 l 315 347 q 350 203 315 250 q 468 156 385 156 q 586 203 551 156 q 621 347 621 250 l 621 949 q 732 957 664 957 q 843 949 799 957 m 292 1114 l 603 1304 q 658 1234 631 1282 q 688 1140 685 1186 l 354 1010 q 314 1053 332 1022 q 292 1114 296 1083 z "},"Û":{"ha":935,"x_min":92,"x_max":843,"o":"m 843 949 l 843 350 q 746 76 843 172 q 468 -21 649 -21 q 190 76 288 -21 q 92 350 92 172 l 92 949 l 101 958 l 183 958 q 315 817 315 958 l 315 347 q 350 203 315 250 q 468 156 385 156 q 586 203 551 156 q 621 347 621 250 l 621 949 q 732 957 664 957 q 843 949 799 957 m 624 1021 l 461 1124 l 294 1004 q 242 1040 269 1014 q 207 1094 214 1067 l 371 1263 q 551 1264 457 1282 l 710 1111 q 674 1056 700 1081 q 624 1021 649 1031 z "},"Ü":{"ha":935,"x_min":92,"x_max":843,"o":"m 843 949 l 843 350 q 746 76 843 172 q 468 -21 649 -21 q 190 76 288 -21 q 92 350 92 172 l 92 949 l 101 958 l 183 958 q 315 817 315 958 l 315 347 q 350 203 315 250 q 468 156 385 156 q 586 203 551 156 q 621 347 621 250 l 621 949 q 732 957 664 957 q 843 949 799 957 m 540 1185 q 631 1208 588 1208 q 665 1205 647 1208 q 713 1185 682 1201 q 729 1115 731 1156 q 715 1049 729 1082 q 669 1026 692 1031 q 631 1021 647 1021 q 595 1024 614 1021 q 540 1044 576 1028 q 521 1115 521 1068 q 540 1185 521 1163 m 218 1185 q 299 1208 254 1208 q 335 1205 314 1208 q 393 1182 356 1201 q 407 1115 408 1150 q 390 1044 407 1063 q 299 1021 344 1021 q 263 1025 281 1021 q 218 1044 246 1029 q 201 1115 199 1078 q 218 1185 201 1164 z "},"Ý":{"ha":753,"x_min":-3,"x_max":757,"o":"m 456 714 l 549 949 q 642 957 585 957 q 747 940 703 957 l 757 929 l 488 292 l 488 0 q 376 -8 444 -8 q 265 0 308 -8 l 265 297 l -3 922 q 119 960 61 960 q 203 940 178 960 q 249 871 229 919 l 315 706 q 378 507 351 617 l 386 507 q 456 714 408 594 m 206 1114 l 517 1304 q 572 1234 544 1282 q 601 1140 599 1186 l 268 1010 q 228 1053 246 1022 q 206 1114 210 1083 z "},"Þ":{"ha":821,"x_min":106,"x_max":778,"o":"m 328 818 l 435 819 q 577 801 514 821 q 685 742 640 782 q 753 644 729 703 q 778 506 778 585 q 753 367 778 426 q 684 267 729 307 q 576 208 639 228 q 435 188 513 188 l 328 188 l 328 0 q 217 -8 283 -8 q 106 0 149 -8 l 106 949 q 217 957 149 957 q 328 949 283 957 l 328 818 m 417 649 q 369 649 392 649 q 328 650 347 649 l 328 357 q 428 360 386 358 q 497 378 469 363 q 537 424 524 394 q 550 504 550 453 q 417 649 550 649 z "},"ß":{"ha":913,"x_min":6,"x_max":878,"o":"m 132 0 l 132 500 l 13 499 q 7 540 8 519 q 6 582 6 561 q 7 624 6 603 q 13 664 8 644 l 132 663 l 132 693 q 222 901 132 829 q 467 972 313 972 q 606 952 543 972 q 715 894 669 932 q 785 802 760 856 q 810 682 810 749 q 786 575 810 631 q 722 544 744 565 q 700 497 700 522 q 728 440 697 468 l 781 389 q 878 194 878 293 q 857 105 878 144 q 799 38 836 65 q 713 -6 763 10 q 608 -21 664 -21 q 414 19 497 -21 q 419 58 414 38 q 431 100 424 79 q 449 138 439 121 q 472 168 460 156 q 571 142 524 142 q 650 200 650 142 q 610 272 650 235 l 553 325 q 467 479 467 404 q 499 571 467 525 q 586 643 531 617 q 588 665 588 656 q 589 681 589 674 q 558 770 589 733 q 468 807 526 807 q 354 671 354 807 l 354 0 q 243 -8 304 -8 q 132 0 182 -8 z "},"à":{"ha":713,"x_min":42,"x_max":672,"o":"m 672 100 q 646 38 665 71 q 606 -11 626 4 q 456 63 508 -8 q 260 -21 365 -21 q 165 -3 206 -21 q 97 43 125 14 q 56 110 69 72 q 42 190 42 149 q 63 295 42 250 q 122 370 85 340 q 210 415 160 400 q 317 431 260 431 q 373 430 349 431 q 415 428 397 429 l 415 454 q 325 542 415 542 q 121 497 267 542 q 68 649 79 546 q 142 672 101 661 q 226 692 183 683 q 311 705 269 700 q 386 710 353 710 q 480 696 435 710 q 559 653 525 682 q 613 580 593 625 q 633 472 633 535 l 633 190 q 672 100 633 126 m 253 204 q 328 139 253 139 q 415 179 367 139 l 415 290 q 369 292 388 292 q 340 293 350 293 q 253 204 253 293 m 276 1069 l 492 835 q 456 782 481 806 q 403 751 431 758 l 146 944 q 197 1020 157 983 q 276 1069 236 1057 z "},"á":{"ha":713,"x_min":42,"x_max":672,"o":"m 672 100 q 646 38 665 71 q 606 -11 626 4 q 456 63 508 -8 q 260 -21 365 -21 q 165 -3 206 -21 q 97 43 125 14 q 56 110 69 72 q 42 190 42 149 q 63 295 42 250 q 122 370 85 340 q 210 415 160 400 q 317 431 260 431 q 373 430 349 431 q 415 428 397 429 l 415 454 q 325 542 415 542 q 121 497 267 542 q 68 649 79 546 q 142 672 101 661 q 226 692 183 683 q 311 705 269 700 q 386 710 353 710 q 480 696 435 710 q 559 653 525 682 q 613 580 593 625 q 633 472 633 535 l 633 190 q 672 100 633 126 m 253 204 q 328 139 253 139 q 415 179 367 139 l 415 290 q 369 292 388 292 q 340 293 350 293 q 253 204 253 293 m 217 835 l 432 1069 q 511 1020 472 1057 q 563 944 550 983 l 306 751 q 252 782 278 758 q 217 835 226 806 z "},"â":{"ha":713,"x_min":42,"x_max":672,"o":"m 672 100 q 646 38 665 71 q 606 -11 626 4 q 456 63 508 -8 q 260 -21 365 -21 q 165 -3 206 -21 q 97 43 125 14 q 56 110 69 72 q 42 190 42 149 q 63 295 42 250 q 122 370 85 340 q 210 415 160 400 q 317 431 260 431 q 373 430 349 431 q 415 428 397 429 l 415 454 q 325 542 415 542 q 121 497 267 542 q 68 649 79 546 q 142 672 101 661 q 226 692 183 683 q 311 705 269 700 q 386 710 353 710 q 480 696 435 710 q 559 653 525 682 q 613 580 593 625 q 633 472 633 535 l 633 190 q 672 100 633 126 m 253 204 q 328 139 253 139 q 415 179 367 139 l 415 290 q 369 292 388 292 q 340 293 350 293 q 253 204 253 293 m 481 765 l 354 886 l 219 756 q 124 839 156 781 l 268 1028 q 447 1028 349 1053 l 574 854 q 534 799 563 824 q 481 765 506 775 z "},"ã":{"ha":713,"x_min":42,"x_max":672,"o":"m 672 100 q 646 38 665 71 q 606 -11 626 4 q 456 63 508 -8 q 260 -21 365 -21 q 165 -3 206 -21 q 97 43 125 14 q 56 110 69 72 q 42 190 42 149 q 63 295 42 250 q 122 370 85 340 q 210 415 160 400 q 317 431 260 431 q 373 430 349 431 q 415 428 397 429 l 415 454 q 325 542 415 542 q 121 497 267 542 q 68 649 79 546 q 142 672 101 661 q 226 692 183 683 q 311 705 269 700 q 386 710 353 710 q 480 696 435 710 q 559 653 525 682 q 613 580 593 625 q 633 472 633 535 l 633 190 q 672 100 633 126 m 253 204 q 328 139 253 139 q 415 179 367 139 l 415 290 q 369 292 388 292 q 340 293 350 293 q 253 204 253 293 m 349 794 l 288 826 q 246 839 263 839 q 199 804 224 839 l 186 788 q 126 806 157 788 q 86 853 96 825 l 97 879 q 165 970 119 939 q 261 1001 211 1001 q 346 976 308 1001 l 407 946 q 426 937 417 940 q 444 933 435 933 q 496 967 471 932 l 508 983 q 568 965 538 983 q 608 918 599 946 l 597 892 q 528 800 572 832 q 433 769 483 768 q 349 794 388 769 z "},"ä":{"ha":713,"x_min":42,"x_max":672,"o":"m 672 100 q 646 38 665 71 q 606 -11 626 4 q 456 63 508 -8 q 260 -21 365 -21 q 165 -3 206 -21 q 97 43 125 14 q 56 110 69 72 q 42 190 42 149 q 63 295 42 250 q 122 370 85 340 q 210 415 160 400 q 317 431 260 431 q 373 430 349 431 q 415 428 397 429 l 415 454 q 325 542 415 542 q 121 497 267 542 q 68 649 79 546 q 142 672 101 661 q 226 692 183 683 q 311 705 269 700 q 386 710 353 710 q 480 696 435 710 q 559 653 525 682 q 613 580 593 625 q 633 472 633 535 l 633 190 q 672 100 633 126 m 253 204 q 328 139 253 139 q 415 179 367 139 l 415 290 q 369 292 388 292 q 340 293 350 293 q 253 204 253 293 m 396 797 q 383 867 383 826 q 396 935 383 906 q 485 957 436 957 q 576 935 532 957 q 588 865 588 904 q 576 797 588 828 q 533 779 557 785 q 485 774 510 774 q 438 779 461 774 q 396 797 414 785 m 115 797 q 106 831 108 813 q 104 867 104 849 q 106 903 104 886 q 115 935 108 919 q 207 957 157 957 q 296 935 256 957 q 308 865 308 906 q 296 797 308 826 q 253 779 276 785 q 207 774 231 774 q 158 779 182 774 q 115 797 135 785 z "},"å":{"ha":713,"x_min":42,"x_max":672,"o":"m 672 100 q 646 38 665 71 q 606 -11 626 4 q 456 63 508 -8 q 260 -21 365 -21 q 165 -3 206 -21 q 97 43 125 14 q 56 110 69 72 q 42 190 42 149 q 63 295 42 250 q 122 370 85 340 q 210 415 160 400 q 317 431 260 431 q 373 430 349 431 q 415 428 397 429 l 415 454 q 325 542 415 542 q 121 497 267 542 q 68 649 79 546 q 142 672 101 661 q 226 692 183 683 q 311 705 269 700 q 386 710 353 710 q 480 696 435 710 q 559 653 525 682 q 613 580 593 625 q 633 472 633 535 l 633 190 q 672 100 633 126 m 253 204 q 328 139 253 139 q 415 179 367 139 l 415 290 q 369 292 388 292 q 340 293 350 293 q 253 204 253 293 m 207 804 q 153 932 153 856 q 167 1003 153 971 q 208 1060 182 1036 q 269 1097 233 1083 q 349 1110 306 1110 q 427 1097 392 1110 q 489 1060 463 1083 q 530 1003 515 1036 q 544 932 544 971 q 530 861 544 894 q 490 804 515 828 q 428 767 464 781 q 349 753 392 753 q 207 804 260 753 m 349 1003 q 298 981 314 1001 q 281 932 282 960 q 297 885 282 906 q 349 863 311 865 q 400 885 385 864 q 417 932 415 906 q 399 982 417 961 q 349 1003 382 1003 z "},"æ":{"ha":1050,"x_min":42,"x_max":1008,"o":"m 990 276 l 632 276 q 662 179 633 214 q 756 144 690 144 q 833 154 789 144 q 932 186 876 164 q 990 58 976 142 q 722 -21 878 -21 q 490 78 568 -21 q 253 -21 388 -21 q 163 -3 203 -21 q 97 44 124 15 q 56 112 69 74 q 42 190 42 150 q 63 295 42 250 q 122 370 85 340 q 210 415 160 400 q 317 431 260 431 q 373 430 349 431 q 415 428 397 429 l 415 456 q 326 542 415 542 q 121 497 258 542 q 68 649 79 546 q 369 710 222 710 q 539 646 476 710 q 721 714 615 714 q 841 692 788 714 q 931 631 894 671 q 988 538 968 592 q 1008 419 1008 483 q 990 276 1008 340 m 317 139 q 433 194 378 139 q 417 290 421 238 q 383 292 403 292 q 340 293 364 293 q 253 203 253 293 q 270 157 253 175 q 317 139 288 139 m 719 560 q 655 528 675 560 q 631 426 635 497 l 808 426 l 808 442 q 719 560 808 560 z "},"ç":{"ha":660,"x_min":42,"x_max":624,"o":"m 258 -108 q 288 -15 267 -72 q 104 98 167 3 q 42 344 42 193 q 67 510 42 440 q 135 625 93 579 q 233 692 178 671 q 347 714 288 714 q 459 697 408 714 q 547 650 510 681 q 603 577 583 619 q 624 483 624 535 q 590 401 624 425 q 506 378 556 378 q 429 386 464 378 l 429 404 q 413 517 429 482 q 350 553 396 553 q 282 505 301 553 q 263 346 263 457 q 270 253 263 290 q 292 192 278 215 q 329 159 307 169 q 382 149 351 149 q 453 163 414 149 q 536 207 492 176 q 562 187 549 200 q 586 157 575 174 q 606 122 597 140 q 618 86 614 103 q 397 -18 539 0 l 386 -44 q 488 -82 450 -47 q 526 -176 526 -117 q 512 -232 526 -206 q 472 -278 497 -258 q 411 -310 446 -299 q 338 -322 376 -322 q 213 -289 258 -322 q 249 -196 215 -232 q 313 -214 275 -214 q 363 -175 363 -214 q 349 -144 363 -153 q 318 -135 335 -135 q 290 -139 303 -135 q 258 -108 268 -128 z "},"è":{"ha":690,"x_min":42,"x_max":642,"o":"m 624 276 l 261 276 q 293 179 264 214 q 389 144 322 144 q 466 154 422 144 q 567 186 510 164 q 624 58 613 139 q 351 -21 513 -21 q 205 7 264 -21 q 109 85 146 35 q 57 203 72 135 q 42 351 42 271 q 60 495 42 429 q 117 610 79 561 q 215 686 156 658 q 353 714 274 714 q 473 692 419 714 q 564 631 526 669 q 622 538 601 592 q 642 419 642 483 q 624 276 642 335 m 260 426 l 443 426 l 443 442 q 420 526 443 493 q 351 560 397 560 q 285 528 307 560 q 260 426 264 497 m 282 1069 l 497 835 q 461 782 486 806 q 408 751 436 758 l 151 944 q 202 1020 163 983 q 282 1069 242 1057 z "},"é":{"ha":690,"x_min":42,"x_max":642,"o":"m 624 276 l 261 276 q 293 179 264 214 q 389 144 322 144 q 466 154 422 144 q 567 186 510 164 q 624 58 613 139 q 351 -21 513 -21 q 205 7 264 -21 q 109 85 146 35 q 57 203 72 135 q 42 351 42 271 q 60 495 42 429 q 117 610 79 561 q 215 686 156 658 q 353 714 274 714 q 473 692 419 714 q 564 631 526 669 q 622 538 601 592 q 642 419 642 483 q 624 276 642 335 m 260 426 l 443 426 l 443 442 q 420 526 443 493 q 351 560 397 560 q 285 528 307 560 q 260 426 264 497 m 226 835 l 442 1069 q 521 1020 482 1057 q 572 944 560 983 l 315 751 q 262 782 288 758 q 226 835 236 806 z "},"ê":{"ha":690,"x_min":42,"x_max":642,"o":"m 624 276 l 261 276 q 293 179 264 214 q 389 144 322 144 q 466 154 422 144 q 567 186 510 164 q 624 58 613 139 q 351 -21 513 -21 q 205 7 264 -21 q 109 85 146 35 q 57 203 72 135 q 42 351 42 271 q 60 495 42 429 q 117 610 79 561 q 215 686 156 658 q 353 714 274 714 q 473 692 419 714 q 564 631 526 669 q 622 538 601 592 q 642 419 642 483 q 624 276 642 335 m 260 426 l 443 426 l 443 442 q 420 526 443 493 q 351 560 397 560 q 285 528 307 560 q 260 426 264 497 m 488 765 l 361 886 l 226 756 q 131 839 163 781 l 275 1028 q 454 1028 356 1053 l 581 854 q 541 799 569 824 q 488 765 513 775 z "},"ë":{"ha":690,"x_min":42,"x_max":642,"o":"m 624 276 l 261 276 q 293 179 264 214 q 389 144 322 144 q 466 154 422 144 q 567 186 510 164 q 624 58 613 139 q 351 -21 513 -21 q 205 7 264 -21 q 109 85 146 35 q 57 203 72 135 q 42 351 42 271 q 60 495 42 429 q 117 610 79 561 q 215 686 156 658 q 353 714 274 714 q 473 692 419 714 q 564 631 526 669 q 622 538 601 592 q 642 419 642 483 q 624 276 642 335 m 260 426 l 443 426 l 443 442 q 420 526 443 493 q 351 560 397 560 q 285 528 307 560 q 260 426 264 497 m 404 797 q 392 867 392 826 q 404 935 392 906 q 493 957 444 957 q 585 935 540 957 q 596 865 596 904 q 585 797 596 828 q 542 779 565 785 q 493 774 518 774 q 446 779 469 774 q 404 797 422 785 m 124 797 q 115 831 117 813 q 113 867 113 849 q 115 903 113 886 q 124 935 117 919 q 215 957 165 957 q 304 935 264 957 q 317 865 317 906 q 304 797 317 826 q 262 779 285 785 q 215 774 239 774 q 167 779 190 774 q 124 797 143 785 z "},"ì":{"ha":414,"x_min":-8,"x_max":338,"o":"m 333 533 l 333 0 q 226 -8 288 -8 q 115 0 164 -8 l 115 460 q 50 540 115 540 l 29 540 q 21 615 21 568 q 29 692 21 661 q 151 699 101 699 l 182 699 q 292 654 251 699 q 333 533 333 610 m 122 1069 l 338 835 q 301 782 326 806 q 249 751 276 758 l -8 944 q 42 1020 3 983 q 122 1069 82 1057 z "},"í":{"ha":414,"x_min":21,"x_max":410,"o":"m 333 533 l 333 0 q 226 -8 288 -8 q 115 0 164 -8 l 115 460 q 50 540 115 540 l 29 540 q 21 615 21 568 q 29 692 21 661 q 151 699 101 699 l 182 699 q 292 654 251 699 q 333 533 333 610 m 64 835 l 279 1069 q 358 1020 319 1057 q 410 944 397 983 l 153 751 q 99 782 125 758 q 64 835 74 806 z "},"î":{"ha":414,"x_min":-32,"x_max":418,"o":"m 333 533 l 333 0 q 226 -8 288 -8 q 115 0 164 -8 l 115 460 q 50 540 115 540 l 29 540 q 21 615 21 568 q 29 692 21 661 q 151 699 101 699 l 182 699 q 292 654 251 699 q 333 533 333 610 m 325 765 l 199 886 l 64 756 q -32 839 0 781 l 113 1028 q 292 1028 193 1053 l 418 854 q 378 799 407 824 q 325 765 350 775 z "},"ï":{"ha":414,"x_min":-47,"x_max":436,"o":"m 333 533 l 333 0 q 226 -8 288 -8 q 115 0 164 -8 l 115 460 q 50 540 115 540 l 29 540 q 21 615 21 568 q 29 692 21 661 q 151 699 101 699 l 182 699 q 292 654 251 699 q 333 533 333 610 m 244 797 q 232 867 232 826 q 244 935 232 906 q 333 957 285 957 q 425 935 381 957 q 436 865 436 904 q 425 797 436 828 q 382 779 406 785 q 333 774 358 774 q 286 779 310 774 q 244 797 263 785 m -36 797 q -45 831 -43 813 q -47 867 -47 849 q -45 903 -47 886 q -36 935 -43 919 q 56 957 6 957 q 144 935 104 957 q 157 865 157 906 q 144 797 157 826 q 102 779 125 785 q 56 774 79 774 q 7 779 31 774 q -36 797 -17 785 z "},"ð":{"ha":722,"x_min":40,"x_max":681,"o":"m 117 793 l 214 860 q 176 885 197 871 q 129 914 156 899 q 140 955 132 935 q 160 993 149 975 q 185 1025 171 1011 q 215 1046 200 1039 q 296 1008 258 1028 q 367 965 333 988 l 483 1044 q 554 946 538 1006 l 465 885 q 681 346 681 678 q 659 194 681 263 q 597 78 638 126 q 495 5 556 31 q 358 -21 435 -21 q 223 5 282 -21 q 123 78 164 31 q 61 190 82 125 q 40 335 40 256 q 63 477 40 414 q 124 585 85 540 q 219 653 164 629 q 342 676 275 676 q 396 668 371 676 q 313 781 372 719 l 186 694 q 117 793 129 735 m 446 500 q 363 524 396 524 q 283 476 306 524 q 261 335 261 428 q 265 252 261 289 q 281 190 269 215 q 310 151 292 164 q 360 138 329 138 q 439 193 419 138 q 458 344 458 249 q 446 500 458 443 z "},"ñ":{"ha":760,"x_min":83,"x_max":714,"o":"m 681 458 l 681 174 q 714 36 681 82 q 588 -11 661 -11 q 489 22 515 -11 q 463 124 463 56 l 463 419 q 450 489 463 467 q 401 511 438 511 q 354 500 381 511 q 300 464 328 489 l 300 0 q 249 -6 276 -4 q 192 -8 221 -8 q 135 -6 163 -8 q 83 0 107 -4 l 83 693 l 93 703 l 175 703 q 289 619 260 703 q 482 706 386 706 q 630 638 579 706 q 681 458 681 571 m 393 794 l 332 826 q 290 839 307 839 q 243 804 268 839 l 231 788 q 171 806 201 788 q 131 853 140 825 l 142 879 q 210 970 164 939 q 306 1001 256 1001 q 390 976 353 1001 l 451 946 q 470 937 461 940 q 489 933 479 933 q 540 967 515 932 l 553 983 q 613 965 582 983 q 653 918 643 946 l 642 892 q 572 800 617 832 q 478 769 528 768 q 393 794 432 769 z "},"ò":{"ha":725,"x_min":42,"x_max":683,"o":"m 583 632 q 683 346 683 532 q 662 194 683 263 q 599 78 640 126 q 499 5 558 31 q 361 -21 439 -21 q 224 6 283 -21 q 124 80 165 32 q 63 196 83 128 q 42 346 42 264 q 63 497 42 429 q 124 613 83 564 q 224 688 164 661 q 361 714 283 714 q 583 632 499 714 m 363 551 q 313 537 332 551 q 283 497 294 522 q 268 440 272 472 q 264 369 264 407 q 267 269 264 311 q 281 198 271 226 q 310 156 292 169 q 360 142 329 142 q 440 195 421 142 q 460 347 460 249 q 440 499 460 447 q 363 551 421 551 m 290 1069 l 506 835 q 469 782 494 806 q 417 751 444 758 l 160 944 q 210 1020 171 983 q 290 1069 250 1057 z "},"ó":{"ha":725,"x_min":42,"x_max":683,"o":"m 583 632 q 683 346 683 532 q 662 194 683 263 q 599 78 640 126 q 499 5 558 31 q 361 -21 439 -21 q 224 6 283 -21 q 124 80 165 32 q 63 196 83 128 q 42 346 42 264 q 63 497 42 429 q 124 613 83 564 q 224 688 164 661 q 361 714 283 714 q 583 632 499 714 m 363 551 q 313 537 332 551 q 283 497 294 522 q 268 440 272 472 q 264 369 264 407 q 267 269 264 311 q 281 198 271 226 q 310 156 292 169 q 360 142 329 142 q 440 195 421 142 q 460 347 460 249 q 440 499 460 447 q 363 551 421 551 m 235 835 l 450 1069 q 529 1020 490 1057 q 581 944 568 983 l 324 751 q 270 782 296 758 q 235 835 244 806 z "},"ô":{"ha":725,"x_min":42,"x_max":683,"o":"m 583 632 q 683 346 683 532 q 662 194 683 263 q 599 78 640 126 q 499 5 558 31 q 361 -21 439 -21 q 224 6 283 -21 q 124 80 165 32 q 63 196 83 128 q 42 346 42 264 q 63 497 42 429 q 124 613 83 564 q 224 688 164 661 q 361 714 283 714 q 583 632 499 714 m 363 551 q 313 537 332 551 q 283 497 294 522 q 268 440 272 472 q 264 369 264 407 q 267 269 264 311 q 281 198 271 226 q 310 156 292 169 q 360 142 329 142 q 440 195 421 142 q 460 347 460 249 q 440 499 460 447 q 363 551 421 551 m 496 765 l 369 886 l 235 756 q 139 839 171 781 l 283 1028 q 463 1028 364 1053 l 589 854 q 549 799 578 824 q 496 765 521 775 z "},"õ":{"ha":725,"x_min":42,"x_max":683,"o":"m 583 632 q 683 346 683 532 q 662 194 683 263 q 599 78 640 126 q 499 5 558 31 q 361 -21 439 -21 q 224 6 283 -21 q 124 80 165 32 q 63 196 83 128 q 42 346 42 264 q 63 497 42 429 q 124 613 83 564 q 224 688 164 661 q 361 714 283 714 q 583 632 499 714 m 363 551 q 313 537 332 551 q 283 497 294 522 q 268 440 272 472 q 264 369 264 407 q 267 269 264 311 q 281 198 271 226 q 310 156 292 169 q 360 142 329 142 q 440 195 421 142 q 460 347 460 249 q 440 499 460 447 q 363 551 421 551 m 364 794 l 303 826 q 261 839 278 839 q 214 804 239 839 l 201 788 q 142 806 172 788 q 101 853 111 825 l 113 879 q 181 970 135 939 q 276 1001 226 1001 q 361 976 324 1001 l 422 946 q 441 937 432 940 q 460 933 450 933 q 511 967 486 932 l 524 983 q 583 965 553 983 q 624 918 614 946 l 613 892 q 543 800 588 832 q 449 769 499 768 q 364 794 403 769 z "},"ö":{"ha":725,"x_min":42,"x_max":683,"o":"m 583 632 q 683 346 683 532 q 662 194 683 263 q 599 78 640 126 q 499 5 558 31 q 361 -21 439 -21 q 224 6 283 -21 q 124 80 165 32 q 63 196 83 128 q 42 346 42 264 q 63 497 42 429 q 124 613 83 564 q 224 688 164 661 q 361 714 283 714 q 583 632 499 714 m 363 551 q 313 537 332 551 q 283 497 294 522 q 268 440 272 472 q 264 369 264 407 q 267 269 264 311 q 281 198 271 226 q 310 156 292 169 q 360 142 329 142 q 440 195 421 142 q 460 347 460 249 q 440 499 460 447 q 363 551 421 551 m 413 797 q 400 867 400 826 q 413 935 400 906 q 501 957 453 957 q 593 935 549 957 q 604 865 604 904 q 593 797 604 828 q 550 779 574 785 q 501 774 526 774 q 454 779 478 774 q 413 797 431 785 m 132 797 q 123 831 125 813 q 121 867 121 849 q 123 903 121 886 q 132 935 125 919 q 224 957 174 957 q 313 935 272 957 q 325 865 325 906 q 313 797 325 826 q 270 779 293 785 q 224 774 247 774 q 175 779 199 774 q 132 797 151 785 z "},"÷":{"ha":736,"x_min":64,"x_max":672,"o":"m 275 738 q 369 757 314 757 q 432 749 413 757 q 460 738 451 742 q 476 665 478 713 q 472 626 476 646 q 460 590 468 606 q 367 571 424 571 q 275 590 311 571 q 260 664 260 621 q 263 702 260 683 q 275 738 267 721 m 275 94 q 263 128 267 110 q 260 165 260 146 q 263 204 260 185 q 275 240 267 224 q 369 260 311 260 q 425 254 404 260 q 460 240 446 249 q 472 207 468 225 q 476 165 476 189 q 458 94 476 117 q 368 74 431 74 q 275 94 308 74 m 663 329 l 74 329 q 64 417 64 363 q 74 503 64 472 l 663 503 q 672 417 672 472 q 663 329 672 363 z "},"ø":{"ha":729,"x_min":44,"x_max":686,"o":"m 588 632 q 686 347 686 538 q 603 76 686 174 q 365 -21 519 -21 q 247 -3 297 -21 l 200 -83 q 92 -25 131 -69 l 142 61 q 44 347 44 158 q 128 618 44 522 q 365 714 213 714 q 482 696 432 714 l 529 779 q 636 719 594 761 l 586 632 l 588 632 m 479 435 l 325 139 q 365 132 346 132 q 424 149 401 132 q 461 194 447 167 q 480 256 475 221 q 485 324 485 290 q 483 388 485 360 q 479 435 482 415 m 250 260 l 404 554 q 365 561 383 561 q 301 542 325 561 q 265 492 278 522 q 249 424 253 461 q 244 350 244 386 q 246 301 244 325 q 250 260 247 278 z "},"ù":{"ha":763,"x_min":46,"x_max":715,"o":"m 79 235 l 79 519 q 46 658 79 610 q 171 704 97 704 q 271 671 244 704 q 297 569 297 638 l 297 275 q 308 204 297 226 q 367 182 319 182 q 460 229 413 182 l 460 693 q 567 701 506 701 q 676 693 628 701 l 676 199 q 715 97 676 124 q 689 37 708 69 q 649 -11 669 4 q 485 86 535 -7 q 278 -12 375 -12 q 130 55 181 -12 q 79 235 79 122 m 297 1069 l 513 835 q 476 782 501 806 q 424 751 451 758 l 167 944 q 217 1020 178 983 q 297 1069 257 1057 z "},"ú":{"ha":763,"x_min":46,"x_max":715,"o":"m 79 235 l 79 519 q 46 658 79 610 q 171 704 97 704 q 271 671 244 704 q 297 569 297 638 l 297 275 q 308 204 297 226 q 367 182 319 182 q 460 229 413 182 l 460 693 q 567 701 506 701 q 676 693 628 701 l 676 199 q 715 97 676 124 q 689 37 708 69 q 649 -11 669 4 q 485 86 535 -7 q 278 -12 375 -12 q 130 55 181 -12 q 79 235 79 122 m 239 835 l 454 1069 q 533 1020 494 1057 q 585 944 572 983 l 328 751 q 274 782 300 758 q 239 835 249 806 z "},"û":{"ha":763,"x_min":46,"x_max":715,"o":"m 79 235 l 79 519 q 46 658 79 610 q 171 704 97 704 q 271 671 244 704 q 297 569 297 638 l 297 275 q 308 204 297 226 q 367 182 319 182 q 460 229 413 182 l 460 693 q 567 701 506 701 q 676 693 628 701 l 676 199 q 715 97 676 124 q 689 37 708 69 q 649 -11 669 4 q 485 86 535 -7 q 278 -12 375 -12 q 130 55 181 -12 q 79 235 79 122 m 501 765 l 375 886 l 240 756 q 144 839 176 781 l 289 1028 q 468 1028 369 1053 l 594 854 q 555 799 583 824 q 501 765 526 775 z "},"ü":{"ha":763,"x_min":46,"x_max":715,"o":"m 79 235 l 79 519 q 46 658 79 610 q 171 704 97 704 q 271 671 244 704 q 297 569 297 638 l 297 275 q 308 204 297 226 q 367 182 319 182 q 460 229 413 182 l 460 693 q 567 701 506 701 q 676 693 628 701 l 676 199 q 715 97 676 124 q 689 37 708 69 q 649 -11 669 4 q 485 86 535 -7 q 278 -12 375 -12 q 130 55 181 -12 q 79 235 79 122 m 418 797 q 406 867 406 826 q 418 935 406 906 q 507 957 458 957 q 599 935 554 957 q 610 865 610 904 q 599 797 610 828 q 556 779 579 785 q 507 774 532 774 q 460 779 483 774 q 418 797 436 785 m 138 797 q 128 831 131 813 q 126 867 126 849 q 128 903 126 886 q 138 935 131 919 q 229 957 179 957 q 318 935 278 957 q 331 865 331 906 q 318 797 331 826 q 276 779 299 785 q 229 774 253 774 q 181 779 204 774 q 138 797 157 785 z "},"ý":{"ha":690,"x_min":-1,"x_max":683,"o":"m 683 671 l 513 18 q 406 -212 472 -132 q 171 -304 329 -304 q 3 -276 86 -304 q 11 -192 -1 -239 q 46 -121 24 -146 q 171 -142 108 -142 q 307 -29 274 -142 l 313 -10 q 168 78 192 -10 l 7 676 q 126 706 71 706 q 208 685 182 706 q 246 613 233 664 l 310 346 q 342 163 319 308 q 353 153 343 153 l 474 692 q 564 701 507 701 q 675 686 628 701 l 683 671 m 214 835 l 429 1069 q 508 1020 469 1057 q 560 944 547 983 l 303 751 q 249 782 275 758 q 214 835 224 806 z "},"þ":{"ha":742,"x_min":83,"x_max":697,"o":"m 697 369 q 618 84 697 182 q 426 -14 539 -14 q 292 15 364 -14 l 292 -169 q 265 -271 292 -242 q 175 -300 239 -300 l 93 -300 l 83 -290 l 83 1013 l 93 1022 l 175 1022 q 265 993 239 1022 q 292 892 292 964 l 292 653 q 447 707 365 707 q 630 612 563 707 q 697 369 697 517 m 392 535 q 292 481 333 535 l 292 179 q 381 146 344 146 q 476 354 476 146 q 392 535 476 535 z "},"ÿ":{"ha":690,"x_min":-1,"x_max":683,"o":"m 683 671 l 513 18 q 406 -212 472 -132 q 171 -304 329 -304 q 3 -276 86 -304 q 11 -192 -1 -239 q 46 -121 24 -146 q 171 -142 108 -142 q 307 -29 274 -142 l 313 -10 q 168 78 192 -10 l 7 676 q 126 706 71 706 q 208 685 182 706 q 246 613 233 664 l 310 346 q 342 163 319 308 q 353 153 343 153 l 474 692 q 564 701 507 701 q 675 686 628 701 l 683 671 m 393 797 q 381 867 381 826 q 393 935 381 906 q 482 957 433 957 q 574 935 529 957 q 585 865 585 904 q 574 797 585 828 q 531 779 554 785 q 482 774 507 774 q 435 779 458 774 q 393 797 411 785 m 113 797 q 103 831 106 813 q 101 867 101 849 q 103 903 101 886 q 113 935 106 919 q 204 957 154 957 q 293 935 253 957 q 306 865 306 906 q 293 797 306 826 q 251 779 274 785 q 204 774 228 774 q 156 779 179 774 q 113 797 132 785 z "},"Ą":{"ha":886,"x_min":13,"x_max":928,"o":"m 863 8 q 756 -118 756 -50 q 813 -169 756 -169 q 882 -149 849 -169 q 928 -247 924 -185 q 774 -303 858 -303 q 644 -265 690 -303 q 599 -165 599 -228 q 686 -1 599 -78 q 614 108 639 18 l 588 200 q 533 199 569 199 l 336 199 q 281 200 299 199 l 221 -1 q 124 -10 188 -10 q 19 6 61 -10 l 13 17 l 318 949 q 449 957 372 957 q 575 947 526 957 l 875 14 l 863 8 m 332 374 l 388 375 l 489 375 q 513 374 496 375 q 539 374 531 374 l 515 460 q 439 746 482 576 l 431 746 q 364 481 419 686 l 332 374 z "},"ą":{"ha":751,"x_min":42,"x_max":711,"o":"m 665 -149 q 711 -247 707 -185 q 557 -303 642 -303 q 427 -265 474 -303 q 381 -165 381 -228 q 496 25 381 -61 q 457 63 475 40 q 260 -21 368 -21 q 97 43 153 -21 q 42 190 42 107 q 121 369 42 308 q 317 431 200 431 q 415 428 379 431 l 415 454 q 325 542 415 542 q 121 497 265 542 q 68 649 78 547 q 226 693 136 676 q 386 710 317 710 q 561 652 489 710 q 633 472 633 594 l 633 190 q 676 100 633 131 q 597 -19 660 43 q 539 -118 539 -72 q 596 -169 539 -169 q 665 -149 632 -169 m 253 204 q 328 139 253 139 q 415 179 367 139 l 415 290 q 340 293 360 293 q 253 204 253 293 z "},"Ć":{"ha":846,"x_min":50,"x_max":813,"o":"m 601 571 l 601 588 q 449 793 601 793 q 322 713 361 793 q 283 478 283 633 q 332 249 283 324 q 474 174 381 174 q 581 197 522 174 q 710 269 640 219 q 774 205 744 246 q 811 126 804 164 q 737 69 779 96 q 645 22 694 42 q 542 -9 596 3 q 435 -21 489 -21 q 254 20 328 -21 q 135 129 181 61 q 70 286 90 197 q 50 471 50 375 q 81 690 50 596 q 166 846 113 783 q 292 940 219 908 q 446 971 364 971 q 597 949 529 971 q 713 888 665 926 q 787 796 761 849 q 813 682 813 743 q 686 558 813 558 q 601 571 649 558 m 281 1114 l 592 1304 q 647 1234 619 1282 q 676 1140 674 1186 l 343 1010 q 303 1053 321 1022 q 281 1114 285 1083 z "},"ć":{"ha":660,"x_min":42,"x_max":624,"o":"m 429 386 l 429 404 q 413 517 429 482 q 350 553 396 553 q 282 505 301 553 q 263 346 263 457 q 270 253 263 290 q 292 192 278 215 q 329 159 307 169 q 382 149 351 149 q 453 163 414 149 q 536 207 492 176 q 562 187 549 200 q 586 157 575 174 q 606 122 597 140 q 618 86 614 103 q 499 8 572 38 q 349 -21 425 -21 q 121 76 200 -21 q 42 353 42 174 q 67 513 42 444 q 135 625 93 581 q 233 692 178 669 q 347 714 288 714 q 459 697 408 714 q 547 650 510 681 q 603 577 583 619 q 624 483 624 535 q 590 401 624 425 q 506 378 556 378 q 429 386 464 378 m 221 835 l 436 1069 q 515 1020 476 1057 q 567 944 554 983 l 310 751 q 256 782 282 758 q 221 835 231 806 z "},"Č":{"ha":846,"x_min":50,"x_max":813,"o":"m 601 571 l 601 588 q 449 793 601 793 q 322 713 361 793 q 283 478 283 633 q 332 249 283 324 q 474 174 381 174 q 581 197 522 174 q 710 269 640 219 q 774 205 744 246 q 811 126 804 164 q 737 69 779 96 q 645 22 694 42 q 542 -9 596 3 q 435 -21 489 -21 q 254 20 328 -21 q 135 129 181 61 q 70 286 90 197 q 50 471 50 375 q 81 690 50 596 q 166 846 113 783 q 292 940 219 908 q 446 971 364 971 q 597 949 529 971 q 713 888 665 926 q 787 796 761 849 q 813 682 813 743 q 686 558 813 558 q 601 571 649 558 m 282 1276 l 444 1174 l 613 1294 q 667 1259 638 1285 q 703 1206 696 1233 l 536 1035 q 354 1035 449 1014 l 197 1188 q 231 1242 206 1218 q 282 1276 257 1267 z "},"č":{"ha":660,"x_min":42,"x_max":624,"o":"m 429 386 l 429 404 q 413 517 429 482 q 350 553 396 553 q 282 505 301 553 q 263 346 263 457 q 270 253 263 290 q 292 192 278 215 q 329 159 307 169 q 382 149 351 149 q 453 163 414 149 q 536 207 492 176 q 562 187 549 200 q 586 157 575 174 q 606 122 597 140 q 618 86 614 103 q 499 8 572 38 q 349 -21 425 -21 q 121 76 200 -21 q 42 353 42 174 q 67 513 42 444 q 135 625 93 581 q 233 692 178 669 q 347 714 288 714 q 459 697 408 714 q 547 650 510 681 q 603 577 583 619 q 624 483 624 535 q 590 401 624 425 q 506 378 556 378 q 429 386 464 378 m 218 1043 l 346 924 l 482 1056 q 578 972 549 1029 l 431 782 q 341 770 392 769 q 253 782 290 771 l 125 956 q 165 1010 138 986 q 218 1043 193 1035 z "},"Ď":{"ha":926,"x_min":106,"x_max":875,"o":"m 719 61 q 603 8 675 25 q 443 -8 531 -8 q 319 -7 400 -8 q 115 -3 238 -6 l 106 7 l 106 942 l 115 951 q 283 956 196 954 q 465 957 369 957 q 663 919 583 957 q 789 817 742 882 q 856 663 836 751 q 875 474 875 575 q 843 233 875 335 q 719 61 811 132 m 464 165 q 647 474 647 165 q 464 783 647 783 q 385 783 419 783 q 326 785 351 783 l 326 164 q 385 165 351 165 q 464 165 419 165 m 274 1276 l 436 1174 l 604 1294 q 658 1259 629 1285 q 694 1206 688 1233 l 528 1035 q 346 1035 440 1014 l 189 1188 q 223 1242 197 1218 q 274 1276 249 1267 z "},"ď":{"ha":922,"x_min":44,"x_max":939,"o":"m 322 707 q 451 676 389 707 l 451 1013 l 460 1022 l 544 1022 q 637 993 611 1022 q 663 892 663 964 l 663 200 q 701 100 663 126 q 675 38 694 71 q 635 -11 656 4 q 486 67 533 -8 q 286 -21 403 -21 q 107 76 169 -21 q 44 343 44 174 q 66 494 44 426 q 125 608 88 561 q 213 681 163 656 q 322 707 264 707 m 350 154 q 451 208 407 154 l 451 513 q 361 546 394 546 q 267 338 267 546 q 350 154 267 154 m 743 785 l 760 1110 q 853 1115 799 1122 q 939 1083 908 1107 l 865 775 q 802 770 839 767 q 743 785 765 774 z "},"Ę":{"ha":797,"x_min":104,"x_max":747,"o":"m 324 281 l 322 181 l 322 179 q 425 182 386 182 l 747 182 q 743 103 747 131 q 671 8 732 32 l 665 6 q 585 -49 611 -15 q 558 -118 558 -83 q 615 -169 558 -169 q 685 -149 651 -169 q 731 -247 726 -185 q 576 -303 661 -303 q 447 -265 493 -303 q 400 -162 400 -226 q 485 -4 400 -72 l 232 -4 q 138 31 172 -4 q 104 125 104 65 l 104 939 l 114 949 l 713 949 q 721 861 721 908 q 701 763 721 814 l 322 763 l 324 663 l 324 565 q 418 567 360 567 l 631 567 q 643 478 643 528 q 631 386 643 428 l 324 386 l 324 281 z "},"ę":{"ha":690,"x_min":42,"x_max":642,"o":"m 624 276 l 261 276 q 293 179 264 214 q 389 144 322 144 q 466 154 422 144 q 567 186 510 164 q 624 58 613 139 q 539 14 583 29 q 453 -118 453 -51 q 510 -169 453 -169 q 579 -149 546 -169 q 625 -247 621 -183 q 471 -303 557 -303 q 341 -265 388 -303 q 294 -156 294 -226 q 368 -21 294 -87 l 351 -21 q 205 7 264 -21 q 109 85 146 35 q 57 203 72 135 q 42 351 42 271 q 60 495 42 429 q 117 610 79 561 q 215 686 156 658 q 353 714 274 714 q 473 692 419 714 q 564 631 526 669 q 622 538 601 592 q 642 419 642 483 q 624 276 642 335 m 260 426 l 443 426 l 443 442 q 420 526 443 493 q 351 560 397 560 q 285 528 307 560 q 260 426 264 497 z "},"Ě":{"ha":796,"x_min":104,"x_max":747,"o":"m 324 281 l 322 181 l 322 179 q 425 182 386 182 l 747 182 q 743 103 747 131 q 601 -4 726 -4 l 232 -4 q 138 31 172 -4 q 104 125 104 65 l 104 939 l 114 949 l 713 949 q 721 861 721 908 q 701 763 721 814 l 322 763 l 324 663 l 324 565 q 418 567 360 567 l 631 567 q 643 478 643 528 q 631 386 643 428 l 324 386 l 324 281 m 244 1276 l 407 1174 l 575 1294 q 629 1259 600 1285 q 665 1206 658 1233 l 499 1035 q 317 1035 411 1014 l 160 1188 q 194 1242 168 1218 q 244 1276 219 1267 z "},"ě":{"ha":690,"x_min":42,"x_max":642,"o":"m 624 276 l 261 276 q 293 179 264 214 q 389 144 322 144 q 466 154 422 144 q 567 186 510 164 q 624 58 613 139 q 351 -21 513 -21 q 205 7 264 -21 q 109 85 146 35 q 57 203 72 135 q 42 351 42 271 q 60 495 42 429 q 117 610 79 561 q 215 686 156 658 q 353 714 274 714 q 473 692 419 714 q 564 631 526 669 q 622 538 601 592 q 642 419 642 483 q 624 276 642 335 m 260 426 l 443 426 l 443 442 q 420 526 443 493 q 351 560 397 560 q 285 528 307 560 q 260 426 264 497 m 221 1043 l 349 924 l 485 1056 q 581 972 551 1029 l 433 782 q 344 770 394 769 q 256 782 293 771 l 128 956 q 168 1010 140 986 q 221 1043 196 1035 z "},"Ħ":{"ha":964,"x_min":11,"x_max":954,"o":"m 332 393 l 333 290 l 333 0 q 222 -8 290 -8 q 111 0 154 -8 l 111 678 l 21 678 q 11 757 11 717 q 21 838 11 797 l 111 838 l 111 949 q 222 957 154 957 q 333 949 290 957 l 333 838 l 631 838 l 631 949 q 742 957 674 957 q 853 949 811 957 l 853 838 l 944 838 q 954 757 954 797 q 944 678 954 717 l 853 678 l 853 0 q 742 -8 808 -8 q 631 0 675 -8 l 631 290 l 632 393 l 563 392 l 401 392 l 332 393 m 332 574 l 401 575 l 563 575 l 632 574 l 631 678 l 333 678 l 332 574 z "},"ħ":{"ha":758,"x_min":-25,"x_max":714,"o":"m 679 458 l 679 174 q 714 36 679 81 q 586 -11 661 -11 q 488 22 514 -11 q 461 124 461 56 l 461 419 q 449 489 461 467 q 400 511 436 511 q 353 500 379 511 q 299 464 326 489 l 299 0 q 249 -6 275 -4 q 194 -8 222 -8 q 88 0 135 -8 l 88 776 l -17 775 q -25 842 -25 804 q -17 911 -25 878 l 88 908 l 88 1013 l 97 1022 l 181 1022 q 269 997 243 1022 q 299 908 296 971 l 499 911 q 506 874 503 892 q 508 840 508 857 q 506 808 508 825 q 499 775 503 792 l 299 776 l 299 629 q 485 706 392 706 q 628 638 578 706 q 679 458 679 571 z "},"Ĩ":{"ha":440,"x_min":-57,"x_max":499,"o":"m 108 0 l 108 949 q 219 957 151 957 q 332 949 288 957 l 332 0 q 219 -8 288 -8 q 108 0 151 -8 m 222 1054 l 157 1085 q 137 1094 147 1090 q 115 1097 126 1097 q 88 1090 101 1097 q 63 1064 75 1083 l 51 1047 q -13 1066 19 1047 q -57 1113 -46 1085 l -44 1139 q 128 1261 14 1261 q 219 1236 175 1261 l 285 1204 q 304 1195 294 1199 q 325 1192 314 1192 q 352 1199 338 1192 q 379 1225 367 1206 l 390 1243 q 455 1224 422 1243 q 499 1178 488 1206 l 486 1151 q 314 1029 428 1029 q 222 1054 269 1029 z "},"ĩ":{"ha":414,"x_min":-68,"x_max":454,"o":"m 333 533 l 333 0 q 226 -8 288 -8 q 115 0 164 -8 l 115 460 q 50 540 115 540 l 29 540 q 21 615 21 568 q 29 692 21 661 q 151 699 101 699 l 182 699 q 292 654 251 699 q 333 533 333 610 m 194 794 l 133 826 q 92 839 108 839 q 44 804 69 839 l 32 788 q -28 806 3 788 q -68 853 -58 825 l -57 879 q 11 970 -35 939 q 107 1001 57 1001 q 192 976 154 1001 l 253 946 q 272 937 263 940 q 290 933 281 933 q 342 967 317 932 l 354 983 q 414 965 383 983 q 454 918 444 946 l 443 892 q 374 800 418 832 q 279 769 329 768 q 194 794 233 769 z "},"ı":{"ha":414,"x_min":21,"x_max":333,"o":"m 333 533 l 333 0 q 226 -8 288 -8 q 115 0 164 -8 l 115 460 q 50 540 115 540 l 29 540 q 21 615 21 568 q 29 692 21 661 q 151 699 101 699 l 182 699 q 292 654 251 699 q 333 533 333 610 z "},"Ĳ":{"ha":1083,"x_min":108,"x_max":990,"o":"m 108 0 l 108 949 q 219 957 151 957 q 332 949 288 957 l 332 0 q 219 -8 288 -8 q 108 0 151 -8 m 518 211 q 650 169 586 169 q 742 212 717 169 q 768 343 768 254 l 768 949 q 878 957 810 957 q 990 949 946 957 l 990 364 q 975 205 990 275 q 922 86 960 135 q 823 12 885 38 q 668 -14 761 -14 q 442 47 539 -14 q 518 211 457 143 z "},"ĳ":{"ha":824,"x_min":21,"x_max":743,"o":"m 333 533 l 333 0 q 282 -6 310 -4 q 225 -8 254 -8 q 167 -6 196 -8 q 115 0 139 -4 l 115 460 q 50 540 115 540 l 29 540 q 21 614 21 567 q 29 692 21 660 q 96 697 65 694 q 151 699 126 699 l 182 699 q 293 654 253 699 q 333 533 333 610 m 90 972 q 194 994 131 994 q 296 972 260 994 q 313 892 313 935 q 296 811 313 849 q 190 790 256 790 q 90 811 125 790 q 74 892 74 849 q 90 972 74 935 m 743 533 l 743 40 q 732 -99 743 -40 q 691 -198 721 -157 q 609 -265 661 -239 q 476 -306 557 -290 q 436 -249 453 -287 q 418 -174 419 -211 q 472 -145 450 -160 q 506 -111 493 -131 q 524 -66 518 -92 q 529 -4 529 -40 l 529 460 q 464 540 529 540 l 431 540 q 423 576 425 557 q 421 615 421 596 q 431 692 421 658 q 504 697 471 694 q 564 699 538 699 l 594 699 q 703 654 663 699 q 743 533 743 610 m 496 972 q 600 994 536 994 q 701 972 665 994 q 718 892 718 935 q 701 811 718 849 q 596 790 661 790 q 496 811 531 790 q 479 892 479 849 q 496 972 479 935 z "},"Ĵ":{"ha":654,"x_min":14,"x_max":697,"o":"m 90 211 q 222 169 158 169 q 315 212 289 169 q 340 343 340 254 l 340 949 q 450 957 382 957 q 563 949 518 957 l 563 364 q 547 205 563 275 q 494 86 532 135 q 395 12 457 38 q 240 -14 333 -14 q 14 47 111 -14 q 90 211 29 143 m 611 1021 l 449 1124 l 282 1004 q 229 1040 257 1014 q 194 1094 201 1067 l 358 1263 q 539 1264 444 1282 l 697 1111 q 662 1056 688 1081 q 611 1021 636 1031 z "},"ĵ":{"ha":422,"x_min":-25,"x_max":425,"o":"m 342 533 l 342 40 q 288 -199 342 -122 q 75 -306 235 -275 q 35 -249 51 -287 q 17 -174 18 -211 q 103 -112 79 -147 q 128 -4 128 -78 l 128 460 q 63 540 128 540 l 29 540 q 19 615 19 574 q 29 692 19 657 q 163 699 110 699 l 193 699 q 301 654 261 699 q 342 533 342 610 m 332 765 l 206 886 l 71 756 q -25 839 7 781 l 119 1028 q 299 1028 200 1053 l 425 854 q 385 799 414 824 q 332 765 357 775 z "},"Ķ":{"ha":863,"x_min":106,"x_max":853,"o":"m 853 54 q 706 -12 806 -12 q 620 17 649 -12 q 571 115 592 46 l 518 278 q 468 371 497 343 q 389 399 439 399 q 328 396 372 399 l 328 0 q 217 -8 285 -8 q 106 0 149 -8 l 106 949 q 217 957 149 957 q 328 949 285 957 l 328 582 l 364 583 q 400 592 389 583 q 426 631 411 601 l 558 879 q 603 940 579 922 q 676 957 626 957 q 806 950 732 957 l 818 935 l 649 615 q 571 514 617 551 q 669 461 636 500 q 724 357 701 422 l 781 185 q 797 138 792 153 q 825 86 803 122 q 853 54 835 72 m 558 -82 q 574 -167 574 -118 q 517 -313 574 -250 q 361 -406 461 -376 q 296 -318 307 -386 q 388 -178 388 -264 q 369 -104 388 -139 q 459 -73 406 -79 q 558 -82 513 -67 z "},"ķ":{"ha":726,"x_min":83,"x_max":717,"o":"m 615 276 l 650 175 q 717 57 678 83 q 571 -11 656 -11 q 501 10 525 -11 q 460 86 478 32 l 418 206 q 386 263 404 249 q 338 278 368 278 q 294 276 307 278 l 294 0 q 189 -8 249 -8 q 83 0 129 -8 l 83 1013 l 93 1022 l 176 1022 q 268 993 242 1022 q 294 892 294 964 l 294 456 l 317 456 q 356 481 342 456 l 428 619 q 550 699 467 699 q 671 696 590 699 l 679 685 l 572 478 q 501 396 544 425 q 615 276 585 365 m 479 -82 q 494 -167 494 -118 q 438 -313 494 -250 q 282 -406 382 -376 q 217 -318 228 -386 q 308 -178 308 -264 q 290 -104 308 -139 q 380 -73 326 -79 q 479 -82 433 -67 z "},"ĸ":{"ha":726,"x_min":83,"x_max":717,"o":"m 615 276 l 650 175 q 717 57 678 83 q 571 -11 656 -11 q 501 10 525 -11 q 460 86 478 32 l 418 206 q 386 263 404 249 q 338 278 368 278 q 294 276 307 278 l 294 0 q 189 -8 249 -8 q 83 0 129 -8 l 83 693 l 93 703 l 176 703 q 268 674 242 703 q 294 572 294 644 l 294 456 l 317 456 q 356 481 342 456 l 428 619 q 550 699 467 699 q 671 696 590 699 l 679 685 l 572 478 q 501 396 544 425 q 615 276 585 365 z "},"Ŀ":{"ha":725,"x_min":104,"x_max":697,"o":"m 457 188 l 697 188 q 690 92 697 132 q 646 24 683 53 q 547 -4 608 -4 l 233 -4 q 139 31 174 -4 q 104 125 104 65 l 104 949 l 114 958 l 196 958 q 326 817 326 958 l 326 182 q 457 188 388 188 m 485 422 q 473 458 476 438 q 469 501 469 479 q 473 544 469 524 q 485 585 476 565 q 578 608 525 608 q 672 585 628 608 q 683 544 679 565 q 686 501 686 524 q 683 459 686 479 q 672 422 679 439 q 578 396 638 396 q 485 422 519 396 z "},"ŀ":{"ha":558,"x_min":82,"x_max":578,"o":"m 354 158 l 392 158 q 408 67 408 113 q 404 7 408 21 q 256 -7 321 -7 q 122 40 161 -7 q 82 186 82 86 l 82 1013 l 90 1022 l 175 1022 q 267 993 240 1022 q 293 892 293 964 l 293 224 q 354 158 293 158 m 376 424 q 365 460 368 439 q 361 503 361 481 q 365 546 361 525 q 376 586 368 567 q 469 610 417 610 q 564 586 519 610 q 574 546 571 567 q 578 503 578 525 q 574 460 578 481 q 564 424 571 440 q 469 397 529 397 q 376 424 411 397 z "},"Ł":{"ha":740,"x_min":-15,"x_max":713,"o":"m 342 817 l 342 608 l 556 686 l 571 678 q 575 515 594 614 l 342 435 l 342 182 q 471 188 403 188 l 713 188 q 705 97 713 142 q 660 24 697 53 q 561 -4 622 -4 l 247 -4 q 153 31 188 -4 q 119 125 119 65 l 119 367 l 22 331 l 6 339 q 1 501 -15 403 l 119 542 l 119 949 l 129 958 l 210 958 q 342 817 342 958 z "},"ł":{"ha":507,"x_min":1,"x_max":483,"o":"m 404 158 l 442 158 q 458 70 458 113 q 454 7 458 28 q 291 -7 371 -7 q 172 40 211 -7 q 132 186 132 86 l 132 365 l 39 321 l 24 328 q 19 482 1 389 l 132 538 l 132 1013 l 142 1022 l 224 1022 q 315 993 289 1022 q 342 892 342 964 l 342 640 l 446 692 l 461 683 q 465 529 483 622 l 342 468 l 342 224 q 404 158 342 158 z "},"Ń":{"ha":967,"x_min":106,"x_max":863,"o":"m 853 958 l 863 949 l 863 4 q 731 -8 807 -8 q 597 0 656 -8 l 379 497 q 300 693 340 582 l 296 692 q 313 276 313 489 l 313 0 q 208 -8 269 -8 q 106 0 147 -8 l 106 944 q 233 957 158 957 q 365 949 307 957 l 581 453 q 667 242 639 315 l 672 244 q 656 654 656 438 l 656 824 q 685 927 656 896 q 779 958 714 958 l 853 958 m 317 1114 l 628 1304 q 683 1234 656 1282 q 713 1140 710 1186 l 379 1010 q 339 1053 357 1022 q 317 1114 321 1083 z "},"ń":{"ha":760,"x_min":83,"x_max":714,"o":"m 681 458 l 681 174 q 714 36 681 82 q 588 -11 661 -11 q 489 22 515 -11 q 463 124 463 56 l 463 419 q 450 489 463 467 q 401 511 438 511 q 354 500 381 511 q 300 464 328 489 l 300 0 q 249 -6 276 -4 q 192 -8 221 -8 q 135 -6 163 -8 q 83 0 107 -4 l 83 693 l 93 703 l 175 703 q 289 619 260 703 q 482 706 386 706 q 630 638 579 706 q 681 458 681 571 m 261 835 l 476 1069 q 556 1020 517 1057 q 607 944 594 983 l 350 751 q 297 782 322 758 q 261 835 271 806 z "},"Ň":{"ha":967,"x_min":106,"x_max":863,"o":"m 853 958 l 863 949 l 863 4 q 731 -8 807 -8 q 597 0 656 -8 l 379 497 q 300 693 340 582 l 296 692 q 313 276 313 489 l 313 0 q 208 -8 269 -8 q 106 0 147 -8 l 106 944 q 233 957 158 957 q 365 949 307 957 l 581 453 q 667 242 639 315 l 672 244 q 656 654 656 438 l 656 824 q 685 927 656 896 q 779 958 714 958 l 853 958 m 318 1276 l 481 1174 l 649 1294 q 703 1259 674 1285 q 739 1206 732 1233 l 572 1035 q 390 1035 485 1014 l 233 1188 q 267 1242 242 1218 q 318 1276 293 1267 z "},"ň":{"ha":760,"x_min":83,"x_max":714,"o":"m 681 458 l 681 174 q 714 36 681 82 q 588 -11 661 -11 q 489 22 515 -11 q 463 124 463 56 l 463 419 q 450 489 463 467 q 401 511 438 511 q 354 500 381 511 q 300 464 328 489 l 300 0 q 249 -6 276 -4 q 192 -8 221 -8 q 135 -6 163 -8 q 83 0 107 -4 l 83 693 l 93 703 l 175 703 q 289 619 260 703 q 482 706 386 706 q 630 638 579 706 q 681 458 681 571 m 256 1043 l 383 924 l 519 1056 q 615 972 586 1029 l 468 782 q 378 770 429 769 q 290 782 328 771 l 163 956 q 203 1010 175 986 q 256 1043 231 1035 z "},"Œ":{"ha":1274,"x_min":50,"x_max":1239,"o":"m 815 282 l 814 181 q 872 183 846 182 q 917 183 897 183 l 1239 183 q 1210 43 1239 89 q 1093 -3 1181 -3 l 661 -3 q 554 -17 603 -12 q 465 -21 506 -21 q 160 107 269 -21 q 50 474 50 235 q 160 842 50 714 q 465 969 269 969 q 668 949 535 969 l 1204 949 q 1210 910 1207 929 q 1213 872 1213 892 q 1194 763 1213 821 l 814 763 l 815 565 q 857 567 833 567 q 910 567 881 567 l 1122 567 q 1135 478 1135 526 q 1122 386 1135 428 l 815 386 l 815 282 m 465 150 q 600 171 526 150 l 600 778 q 465 799 526 799 q 278 474 278 799 q 465 150 278 150 z "},"œ":{"ha":1111,"x_min":42,"x_max":1071,"o":"m 1051 276 l 694 276 q 726 179 699 214 q 818 144 753 144 q 894 154 851 144 q 994 186 938 164 q 1051 60 1042 139 q 790 -21 944 -21 q 569 60 638 -21 q 358 -21 493 -21 q 224 5 283 -21 q 125 78 165 31 q 63 194 85 126 q 42 347 42 263 q 63 500 42 432 q 126 616 85 568 q 226 689 167 664 q 360 714 285 714 q 574 629 497 714 q 782 714 646 714 q 902 692 849 714 q 993 631 956 669 q 1051 538 1031 592 q 1071 419 1071 483 q 1051 276 1071 343 m 363 551 q 313 537 332 551 q 283 497 294 522 q 268 440 272 472 q 264 369 264 407 q 267 269 264 311 q 281 198 271 226 q 310 156 292 169 q 360 142 329 142 q 440 195 421 142 q 460 347 460 249 q 440 499 460 447 q 363 551 421 551 m 783 560 q 717 528 738 560 q 693 426 696 497 l 871 426 l 871 442 q 783 560 871 560 z "},"Ŕ":{"ha":854,"x_min":106,"x_max":835,"o":"m 786 656 q 772 569 786 610 q 735 495 758 528 q 681 438 713 463 q 617 401 650 414 q 724 274 689 375 l 765 156 q 835 53 789 86 q 772 6 814 25 q 681 -12 731 -12 q 603 16 631 -12 q 551 115 575 44 l 501 261 q 460 325 486 303 q 383 347 435 347 l 326 347 l 326 0 q 215 -8 282 -8 q 106 0 149 -8 l 106 942 l 115 951 q 319 956 236 954 q 449 957 401 957 q 588 938 525 957 q 694 882 650 919 q 762 788 738 844 q 786 656 786 731 m 326 790 l 326 518 q 433 520 389 518 q 505 537 478 522 q 546 578 532 551 q 560 654 560 604 q 429 789 560 789 q 372 789 397 789 q 326 790 346 789 m 249 1114 l 560 1304 q 615 1234 588 1282 q 644 1140 642 1186 l 311 1010 q 271 1053 289 1022 q 249 1114 253 1083 z "},"ŕ":{"ha":551,"x_min":42,"x_max":550,"o":"m 42 593 q 68 655 49 621 q 107 704 88 689 q 285 578 235 694 q 458 703 338 703 q 550 692 494 703 q 535 590 550 649 q 496 489 521 531 q 425 503 472 497 q 311 432 356 503 l 311 0 q 203 -8 265 -8 q 94 0 142 -8 l 94 449 q 42 593 94 553 m 161 835 l 376 1069 q 456 1020 417 1057 q 507 944 494 983 l 250 751 q 197 782 222 758 q 161 835 171 806 z "},"Ŗ":{"ha":854,"x_min":106,"x_max":835,"o":"m 786 656 q 772 569 786 610 q 735 495 758 528 q 681 438 713 463 q 617 401 650 414 q 724 274 689 375 l 765 156 q 835 53 789 86 q 772 6 814 25 q 681 -12 731 -12 q 603 16 631 -12 q 551 115 575 44 l 501 261 q 460 325 486 303 q 383 347 435 347 l 326 347 l 326 0 q 215 -8 282 -8 q 106 0 149 -8 l 106 942 l 115 951 q 319 956 236 954 q 449 957 401 957 q 588 938 525 957 q 694 882 650 919 q 762 788 738 844 q 786 656 786 731 m 326 790 l 326 518 q 433 520 389 518 q 505 537 478 522 q 546 578 532 551 q 560 654 560 604 q 429 789 560 789 q 372 789 397 789 q 326 790 346 789 m 553 -82 q 568 -167 568 -118 q 512 -313 568 -250 q 356 -406 456 -376 q 290 -318 301 -386 q 382 -178 382 -264 q 364 -104 382 -139 q 453 -73 400 -79 q 553 -82 507 -67 z "},"ŗ":{"ha":551,"x_min":42,"x_max":550,"o":"m 42 593 q 68 655 49 621 q 107 704 88 689 q 285 578 235 694 q 458 703 338 703 q 550 692 494 703 q 535 590 550 649 q 496 489 521 531 q 425 503 472 497 q 311 432 356 503 l 311 0 q 203 -8 265 -8 q 94 0 142 -8 l 94 449 q 42 593 94 553 m 304 -82 q 319 -167 319 -118 q 263 -313 319 -250 q 107 -406 207 -376 q 42 -318 53 -386 q 133 -178 133 -264 q 115 -104 133 -139 q 205 -73 151 -79 q 304 -82 258 -67 z "},"Ř":{"ha":854,"x_min":106,"x_max":835,"o":"m 786 656 q 772 569 786 610 q 735 495 758 528 q 681 438 713 463 q 617 401 650 414 q 724 274 689 375 l 765 156 q 835 53 789 86 q 772 6 814 25 q 681 -12 731 -12 q 603 16 631 -12 q 551 115 575 44 l 501 261 q 460 325 486 303 q 383 347 435 347 l 326 347 l 326 0 q 215 -8 282 -8 q 106 0 149 -8 l 106 942 l 115 951 q 319 956 236 954 q 449 957 401 957 q 588 938 525 957 q 694 882 650 919 q 762 788 738 844 q 786 656 786 731 m 326 790 l 326 518 q 433 520 389 518 q 505 537 478 522 q 546 578 532 551 q 560 654 560 604 q 429 789 560 789 q 372 789 397 789 q 326 790 346 789 m 251 1276 l 414 1174 l 582 1294 q 636 1259 607 1285 q 672 1206 665 1233 l 506 1035 q 324 1035 418 1014 l 167 1188 q 201 1242 175 1218 q 251 1276 226 1267 z "},"ř":{"ha":551,"x_min":42,"x_max":550,"o":"m 42 593 q 68 655 49 621 q 107 704 88 689 q 285 578 235 694 q 458 703 338 703 q 550 692 494 703 q 535 590 550 649 q 496 489 521 531 q 425 503 472 497 q 311 432 356 503 l 311 0 q 203 -8 265 -8 q 94 0 142 -8 l 94 449 q 42 593 94 553 m 157 1043 l 285 924 l 421 1056 q 517 972 488 1029 l 369 782 q 280 770 331 769 q 192 782 229 771 l 64 956 q 104 1010 76 986 q 157 1043 132 1035 z "},"Ś":{"ha":774,"x_min":21,"x_max":738,"o":"m 21 82 q 49 174 25 128 q 107 249 74 219 q 389 158 256 158 q 474 185 447 158 q 501 250 501 211 q 414 353 501 315 l 250 422 q 103 526 154 465 q 51 679 51 586 q 77 796 51 743 q 149 888 103 849 q 260 948 196 926 q 401 969 324 969 q 715 890 557 969 q 640 724 708 783 q 390 792 499 792 q 307 767 335 792 q 279 710 279 742 q 361 622 279 656 l 528 551 q 685 438 633 507 q 738 276 738 368 q 714 157 738 211 q 644 63 690 103 q 528 1 597 24 q 365 -21 458 -21 q 21 82 185 -21 m 224 1114 l 535 1304 q 590 1234 563 1282 q 619 1140 617 1186 l 286 1010 q 246 1053 264 1022 q 224 1114 228 1083 z "},"ś":{"ha":615,"x_min":28,"x_max":585,"o":"m 28 47 q 47 126 29 83 q 88 194 64 169 q 281 136 199 136 q 340 149 319 136 q 361 185 361 163 q 297 247 361 226 l 221 276 q 47 485 47 340 q 120 652 47 590 q 317 714 193 714 q 451 697 378 714 q 572 656 525 679 q 557 570 575 617 q 513 504 539 524 q 318 557 396 557 q 276 544 290 557 q 261 513 261 532 q 314 460 261 479 l 400 429 q 585 206 585 364 q 508 40 585 101 q 290 -21 432 -21 q 28 47 149 -21 m 178 835 l 393 1069 q 472 1020 433 1057 q 524 944 511 983 l 267 751 q 213 782 239 758 q 178 835 188 806 z "},"Š":{"ha":774,"x_min":21,"x_max":738,"o":"m 21 82 q 49 174 25 128 q 107 249 74 219 q 389 158 256 158 q 474 185 447 158 q 501 250 501 211 q 414 353 501 315 l 250 422 q 103 526 154 465 q 51 679 51 586 q 77 796 51 743 q 149 888 103 849 q 260 948 196 926 q 401 969 324 969 q 715 890 557 969 q 640 724 708 783 q 390 792 499 792 q 307 767 335 792 q 279 710 279 742 q 361 622 279 656 l 528 551 q 685 438 633 507 q 738 276 738 368 q 714 157 738 211 q 644 63 690 103 q 528 1 597 24 q 365 -21 458 -21 q 21 82 185 -21 m 225 1276 l 388 1174 l 556 1294 q 610 1259 581 1285 q 646 1206 639 1233 l 479 1035 q 297 1035 392 1014 l 140 1188 q 174 1242 149 1218 q 225 1276 200 1267 z "},"š":{"ha":615,"x_min":28,"x_max":585,"o":"m 28 47 q 47 126 29 83 q 88 194 64 169 q 281 136 199 136 q 340 149 319 136 q 361 185 361 163 q 297 247 361 226 l 221 276 q 47 485 47 340 q 120 652 47 590 q 317 714 193 714 q 451 697 378 714 q 572 656 525 679 q 557 570 575 617 q 513 504 539 524 q 318 557 396 557 q 276 544 290 557 q 261 513 261 532 q 314 460 261 479 l 400 429 q 585 206 585 364 q 508 40 585 101 q 290 -21 432 -21 q 28 47 149 -21 m 176 1043 l 304 924 l 440 1056 q 536 972 507 1029 l 389 782 q 299 770 350 769 q 211 782 249 771 l 83 956 q 124 1010 96 986 q 176 1043 151 1035 z "},"Ť":{"ha":708,"x_min":4,"x_max":711,"o":"m 465 765 l 467 663 l 467 0 q 354 -8 419 -8 q 244 0 289 -8 l 244 765 l 156 764 l 13 764 q 4 856 4 804 q 13 949 4 908 l 700 949 q 711 861 711 913 q 683 787 711 810 q 594 764 656 764 l 554 764 l 467 765 l 465 765 m 185 1276 l 347 1174 l 515 1294 q 569 1259 540 1285 q 606 1206 599 1233 l 439 1035 q 257 1035 351 1014 l 100 1188 q 134 1242 108 1218 q 185 1276 160 1267 z "},"ť":{"ha":571,"x_min":-7,"x_max":597,"o":"m 489 694 q 497 617 497 656 q 489 540 497 578 l 324 543 l 324 224 q 385 158 324 158 l 463 158 q 481 67 481 108 q 475 7 481 25 q 286 -7 372 -7 q 111 186 111 -7 l 111 542 l 3 540 q -7 616 -7 575 q 3 694 -7 657 l 111 692 l 111 772 q 138 873 111 843 q 229 903 165 903 l 314 903 l 324 893 l 324 692 l 489 694 m 401 785 l 418 1110 q 512 1115 457 1122 q 597 1083 567 1107 l 524 775 q 460 770 497 767 q 401 785 424 774 z "},"Ů":{"ha":935,"x_min":92,"x_max":843,"o":"m 843 949 l 843 350 q 746 76 843 172 q 468 -21 649 -21 q 190 76 288 -21 q 92 350 92 172 l 92 949 l 101 958 l 183 958 q 315 817 315 958 l 315 347 q 350 203 315 250 q 468 156 385 156 q 586 203 551 156 q 621 347 621 250 l 621 949 q 732 957 664 957 q 843 949 799 957 m 322 967 q 268 1094 268 1018 q 283 1166 268 1133 q 323 1222 297 1199 q 385 1259 349 1246 q 464 1272 421 1272 q 542 1259 507 1272 q 604 1222 578 1246 q 645 1166 631 1199 q 660 1094 660 1133 q 646 1024 660 1057 q 606 967 632 992 q 543 930 579 943 q 464 917 507 917 q 322 967 376 917 m 414 1144 q 396 1094 396 1125 q 415 1043 396 1063 q 464 1024 433 1024 q 514 1045 496 1024 q 532 1094 532 1067 q 513 1144 532 1122 q 464 1165 493 1165 q 437 1160 450 1165 q 414 1144 424 1156 z "},"ů":{"ha":763,"x_min":46,"x_max":715,"o":"m 79 235 l 79 519 q 46 658 79 610 q 171 704 97 704 q 271 671 244 704 q 297 569 297 638 l 297 275 q 308 204 297 226 q 367 182 319 182 q 460 229 413 182 l 460 693 q 567 701 506 701 q 676 693 628 701 l 676 199 q 715 97 676 124 q 689 37 708 69 q 649 -11 669 4 q 485 86 535 -7 q 278 -12 375 -12 q 130 55 181 -12 q 79 235 79 122 m 226 804 q 172 932 172 856 q 187 1003 172 971 q 227 1060 201 1036 q 289 1097 253 1083 q 368 1110 325 1110 q 447 1097 411 1110 q 508 1060 482 1083 q 549 1003 535 1036 q 564 932 564 971 q 549 861 564 894 q 509 804 535 828 q 447 767 483 781 q 368 753 411 753 q 226 804 279 753 m 368 1003 q 317 981 333 1001 q 300 932 301 960 q 316 885 301 906 q 368 863 331 865 q 419 885 404 864 q 436 932 435 906 q 419 982 436 961 q 368 1003 401 1003 z "},"Ÿ":{"ha":753,"x_min":-3,"x_max":757,"o":"m 456 714 l 549 949 q 642 957 585 957 q 747 940 703 957 l 757 929 l 488 292 l 488 0 q 376 -8 444 -8 q 265 0 308 -8 l 265 297 l -3 922 q 119 960 61 960 q 203 940 178 960 q 249 871 229 919 l 315 706 q 378 507 351 617 l 386 507 q 456 714 408 594 m 453 1185 q 543 1208 500 1208 q 577 1205 560 1208 q 625 1185 594 1201 q 642 1115 643 1156 q 628 1049 642 1082 q 582 1026 604 1031 q 543 1021 560 1021 q 508 1024 526 1021 q 453 1044 489 1028 q 433 1115 433 1068 q 453 1185 433 1163 m 131 1185 q 211 1208 167 1208 q 247 1205 226 1208 q 306 1182 268 1201 q 319 1115 321 1150 q 303 1044 319 1063 q 211 1021 257 1021 q 176 1025 193 1021 q 131 1044 158 1029 q 114 1115 111 1078 q 131 1185 114 1164 z "},"Ź":{"ha":806,"x_min":51,"x_max":753,"o":"m 79 215 l 388 639 q 500 776 435 707 l 496 781 q 281 768 397 768 l 82 768 q 74 845 74 800 q 89 949 74 890 l 704 949 q 735 802 735 833 q 710 735 735 771 l 400 310 q 292 179 353 243 l 296 175 q 504 185 435 185 l 582 185 q 738 217 665 185 q 753 114 753 168 q 713 30 753 60 q 607 0 674 0 l 76 0 q 51 144 51 111 q 79 215 51 176 m 226 1114 l 538 1304 q 592 1234 565 1282 q 622 1140 619 1186 l 289 1010 q 249 1053 267 1022 q 226 1114 231 1083 z "},"ź":{"ha":625,"x_min":35,"x_max":593,"o":"m 65 186 l 229 406 q 342 536 275 467 l 338 543 q 165 532 235 532 l 58 532 q 50 603 50 565 q 63 693 50 640 l 546 693 q 575 574 575 608 q 554 510 575 539 l 383 283 q 279 158 318 197 l 283 151 q 393 160 344 160 l 442 160 q 571 183 524 160 q 593 96 593 129 q 478 0 593 0 l 58 0 q 35 108 35 67 q 65 186 35 149 m 183 835 l 399 1069 q 478 1020 439 1057 q 529 944 517 983 l 272 751 q 219 782 244 758 q 183 835 193 806 z "},"Ż":{"ha":806,"x_min":51,"x_max":753,"o":"m 79 215 l 388 639 q 500 776 435 707 l 496 781 q 281 768 397 768 l 82 768 q 74 845 74 800 q 89 949 74 890 l 704 949 q 735 802 735 833 q 710 735 735 771 l 400 310 q 292 179 353 243 l 296 175 q 504 185 435 185 l 582 185 q 738 217 665 185 q 753 114 753 168 q 713 30 753 60 q 607 0 674 0 l 76 0 q 51 144 51 111 q 79 215 51 176 m 299 1214 q 403 1235 338 1235 q 504 1214 468 1235 q 521 1133 521 1176 q 504 1053 521 1090 q 399 1031 468 1031 q 299 1053 331 1031 q 282 1133 282 1090 q 299 1214 282 1176 z "},"ż":{"ha":625,"x_min":35,"x_max":593,"o":"m 65 186 l 229 406 q 342 536 275 467 l 338 543 q 165 532 235 532 l 58 532 q 50 603 50 565 q 63 693 50 640 l 546 693 q 575 574 575 608 q 554 510 575 539 l 383 283 q 279 158 318 197 l 283 151 q 393 160 344 160 l 442 160 q 571 183 524 160 q 593 96 593 129 q 478 0 593 0 l 58 0 q 35 108 35 67 q 65 186 35 149 m 210 972 q 314 994 250 994 q 415 972 379 994 q 432 892 432 935 q 415 811 432 849 q 310 790 375 790 q 210 811 244 790 q 193 892 193 849 q 210 972 193 935 z "},"":{"ha":806,"x_min":51,"x_max":753,"o":"m 79 215 l 388 639 q 500 776 435 707 l 496 781 q 281 768 397 768 l 82 768 q 74 845 74 800 q 89 949 74 890 l 704 949 q 735 802 735 833 q 710 735 735 771 l 400 310 q 292 179 353 243 l 296 175 q 504 185 435 185 l 582 185 q 738 217 665 185 q 753 114 753 168 q 713 30 753 60 q 607 0 674 0 l 76 0 q 51 144 51 111 q 79 215 51 176 m 229 1276 l 392 1174 l 560 1294 q 614 1259 585 1285 q 650 1206 643 1233 l 483 1035 q 301 1035 396 1014 l 144 1188 q 178 1242 153 1218 q 229 1276 204 1267 z "},"":{"ha":625,"x_min":35,"x_max":593,"o":"m 65 186 l 229 406 q 342 536 275 467 l 338 543 q 165 532 235 532 l 58 532 q 50 603 50 565 q 63 693 50 640 l 546 693 q 575 574 575 608 q 554 510 575 539 l 383 283 q 279 158 318 197 l 283 151 q 393 160 344 160 l 442 160 q 571 183 524 160 q 593 96 593 129 q 478 0 593 0 l 58 0 q 35 108 35 67 q 65 186 35 149 m 179 1043 l 307 924 l 443 1056 q 539 972 510 1029 l 392 782 q 302 770 353 769 q 214 782 251 771 l 86 956 q 126 1010 99 986 q 179 1043 154 1035 z "},"ȷ":{"ha":422,"x_min":17,"x_max":342,"o":"m 342 533 l 342 40 q 288 -199 342 -122 q 75 -306 235 -275 q 35 -249 51 -287 q 17 -174 18 -211 q 103 -112 79 -147 q 128 -4 128 -78 l 128 460 q 63 540 128 540 l 29 540 q 19 615 19 574 q 29 692 19 657 q 163 699 110 699 l 193 699 q 301 654 261 699 q 342 533 342 610 z "},"ˆ":{"ha":553,"x_min":53,"x_max":503,"o":"m 410 765 l 283 886 l 149 756 q 53 839 85 781 l 197 1028 q 376 1028 278 1053 l 503 854 q 463 799 492 824 q 410 765 435 775 z "},"ˇ":{"ha":553,"x_min":50,"x_max":503,"o":"m 143 1043 l 271 924 l 407 1056 q 503 972 474 1029 l 356 782 q 266 770 317 769 q 178 782 215 771 l 50 956 q 90 1010 63 986 q 143 1043 118 1035 z "},"˙":{"ha":553,"x_min":157,"x_max":396,"o":"m 174 972 q 278 994 214 994 q 379 972 343 994 q 396 892 396 935 q 379 811 396 849 q 274 790 339 790 q 174 811 208 790 q 157 892 157 849 q 174 972 157 935 z "},"˚":{"ha":553,"x_min":81,"x_max":472,"o":"m 135 804 q 81 932 81 856 q 95 1003 81 971 q 135 1060 110 1036 q 197 1097 161 1083 q 276 1110 233 1110 q 355 1097 319 1110 q 417 1060 390 1083 q 458 1003 443 1036 q 472 932 472 971 q 458 861 472 894 q 417 804 443 828 q 356 767 392 781 q 276 753 319 753 q 135 804 188 753 m 276 1003 q 226 981 242 1001 q 208 932 210 960 q 224 885 210 906 q 276 863 239 865 q 328 885 313 864 q 344 932 343 906 q 327 982 344 961 q 276 1003 310 1003 z "},"˜":{"ha":553,"x_min":15,"x_max":538,"o":"m 278 794 l 217 826 q 175 839 192 839 q 128 804 153 839 l 115 788 q 56 806 86 788 q 15 853 25 825 l 26 879 q 94 970 49 939 q 190 1001 140 1001 q 275 976 238 1001 l 336 946 q 355 937 346 940 q 374 933 364 933 q 425 967 400 932 l 438 983 q 497 965 467 983 q 538 918 528 946 l 526 892 q 457 800 501 832 q 363 769 413 768 q 278 794 317 769 z "},"μ":{"ha":767,"x_min":47,"x_max":718,"o":"m 679 693 l 679 200 q 718 97 679 125 q 692 37 711 69 q 651 -11 672 4 q 497 69 549 -10 q 351 -12 444 -12 q 282 4 318 -12 l 282 -157 q 261 -267 282 -231 q 172 -304 240 -304 q 47 -260 106 -304 q 82 -119 82 -211 l 82 693 q 188 701 128 701 q 296 693 247 701 l 296 261 q 376 169 299 169 q 461 213 425 169 l 461 693 q 569 701 507 701 q 679 693 631 701 z "},"ẞ":{"ha":913,"x_min":6,"x_max":878,"o":"m 132 0 l 132 500 l 13 499 q 7 540 8 519 q 6 582 6 561 q 7 624 6 603 q 13 664 8 644 l 132 663 l 132 693 q 222 901 132 829 q 467 972 313 972 q 606 952 543 972 q 715 894 669 932 q 785 802 760 856 q 810 682 810 749 q 786 575 810 631 q 722 544 744 565 q 700 497 700 522 q 728 440 697 468 l 781 389 q 878 194 878 293 q 857 105 878 144 q 799 38 836 65 q 713 -6 763 10 q 608 -21 664 -21 q 414 19 497 -21 q 419 58 414 38 q 431 100 424 79 q 449 138 439 121 q 472 168 460 156 q 571 142 524 142 q 650 200 650 142 q 610 272 650 235 l 553 325 q 467 479 467 404 q 499 571 467 525 q 586 643 531 617 q 588 665 588 656 q 589 681 589 674 q 558 770 589 733 q 468 807 526 807 q 354 671 354 807 l 354 0 q 243 -8 304 -8 q 132 0 182 -8 z "},"–":{"ha":771,"x_min":78,"x_max":696,"o":"m 686 286 l 86 286 q 78 369 78 321 q 86 451 78 417 l 686 451 q 696 369 696 418 q 686 286 696 321 z "},"—":{"ha":1133,"x_min":93,"x_max":1039,"o":"m 1031 286 l 103 286 q 93 369 93 321 q 103 451 93 417 l 1031 451 q 1039 369 1039 417 q 1031 286 1039 321 z "},"‘":{"ha":372,"x_min":54,"x_max":340,"o":"m 71 700 q 54 810 54 750 q 114 993 54 914 q 292 1106 174 1072 q 328 1069 315 1093 q 340 1017 340 1044 l 340 1006 q 260 961 297 992 q 221 888 222 931 q 285 867 253 885 q 298 820 296 838 q 300 781 300 803 q 285 700 300 728 q 175 675 240 675 q 71 700 110 675 z "},"’":{"ha":372,"x_min":31,"x_max":319,"o":"m 301 1079 q 319 969 319 1033 q 258 787 319 867 q 81 675 197 707 q 44 711 57 686 q 32 764 31 736 l 32 775 q 74 792 53 781 q 112 818 94 803 q 140 852 129 833 q 151 893 151 871 q 89 913 115 896 q 74 957 76 940 q 72 996 72 974 q 89 1079 71 1044 q 143 1100 119 1096 q 196 1104 167 1104 q 301 1079 261 1104 z "},"‚":{"ha":372,"x_min":28,"x_max":317,"o":"m 299 175 q 317 64 317 122 q 256 -119 317 -40 q 78 -231 196 -197 q 41 -194 54 -219 q 29 -142 28 -169 l 29 -131 q 110 -86 72 -117 q 149 -12 147 -56 q 85 8 114 -8 q 72 52 74 36 q 69 90 69 68 q 85 175 69 140 q 137 194 108 188 q 193 200 165 200 q 299 175 254 200 z "},"“":{"ha":699,"x_min":50,"x_max":663,"o":"m 67 700 q 50 810 50 750 q 110 993 50 914 q 288 1106 169 1072 q 324 1069 311 1093 q 336 1017 336 1044 l 336 1006 q 256 961 293 992 q 217 888 218 931 q 281 867 249 885 q 294 819 293 835 q 296 781 296 803 q 281 700 296 728 q 171 675 236 675 q 67 700 106 675 m 393 700 q 376 810 376 750 q 436 993 376 914 q 614 1106 496 1072 q 650 1069 638 1093 q 663 1017 663 1044 l 663 1006 q 582 961 619 992 q 543 888 544 931 q 606 868 576 883 q 619 824 617 844 q 622 781 622 803 q 607 700 622 728 q 497 675 563 675 q 393 700 432 675 z "},"”":{"ha":699,"x_min":38,"x_max":653,"o":"m 308 1079 q 326 969 326 1033 q 265 787 326 867 q 88 675 204 707 q 51 711 64 686 q 39 764 38 736 l 39 775 q 81 792 60 781 q 119 818 101 803 q 147 852 136 833 q 158 893 158 871 q 96 913 119 896 q 82 956 85 939 q 79 996 79 974 q 96 1079 79 1049 q 150 1100 126 1096 q 203 1104 174 1104 q 308 1079 268 1104 m 635 1079 q 653 969 653 1033 q 592 787 653 867 q 414 675 531 707 q 377 711 390 686 q 365 764 364 736 l 365 775 q 407 792 386 781 q 445 818 428 803 q 474 852 463 833 q 485 893 485 871 q 422 911 454 894 q 408 956 411 939 q 406 996 406 974 q 422 1079 406 1049 q 476 1100 453 1096 q 529 1104 500 1104 q 635 1079 594 1104 z "},"„":{"ha":699,"x_min":28,"x_max":643,"o":"m 299 175 q 317 64 317 122 q 256 -119 317 -40 q 78 -231 196 -197 q 41 -194 54 -219 q 29 -142 28 -169 l 29 -131 q 110 -86 72 -117 q 149 -12 147 -56 q 85 8 114 -8 q 72 51 75 35 q 69 90 69 68 q 85 175 69 140 q 137 194 108 188 q 193 200 165 200 q 299 175 254 200 m 625 175 q 643 64 643 122 q 583 -119 643 -40 q 404 -231 522 -197 q 367 -194 381 -219 q 356 -142 354 -169 l 356 -131 q 436 -86 399 -117 q 475 -12 474 -56 q 411 8 440 -8 q 398 51 400 35 q 396 90 396 68 q 411 175 396 140 q 463 194 435 188 q 519 200 492 200 q 625 175 581 200 z "},"•":{"ha":642,"x_min":131,"x_max":513,"o":"m 157 238 q 131 372 131 290 q 157 511 131 454 q 321 551 225 551 q 488 511 418 551 q 513 372 513 450 q 488 238 513 293 q 321 194 424 194 q 157 238 217 194 z "},"‹":{"ha":485,"x_min":31,"x_max":443,"o":"m 436 568 l 267 358 l 443 144 q 396 78 433 111 q 324 36 358 44 l 42 293 q 31 354 31 318 q 42 415 31 390 l 321 679 q 391 637 356 671 q 436 568 426 603 z "},"›":{"ha":485,"x_min":43,"x_max":454,"o":"m 49 146 l 218 356 l 43 569 q 90 638 53 604 q 163 679 126 671 l 443 422 q 454 360 454 397 q 443 299 454 324 l 164 36 q 94 78 129 44 q 49 146 60 113 z "},"⁄":{"ha":397,"x_min":-168,"x_max":565,"o":"m -168 0 l 357 949 q 470 958 403 958 q 565 949 538 957 l 40 0 q -72 -9 -4 -10 q -168 0 -140 -8 z "},"⁴":{"ha":583,"x_min":35,"x_max":543,"o":"m 510 538 l 465 539 l 465 443 q 381 435 432 435 q 294 443 329 435 l 294 467 l 296 539 l 218 536 l 74 536 q 35 635 35 600 q 54 714 35 669 l 213 1072 q 304 1065 253 1076 q 385 1035 356 1054 l 313 876 q 206 681 253 739 l 208 678 q 294 683 256 683 l 294 726 q 327 822 294 788 q 419 856 360 856 l 460 856 l 467 850 l 467 789 l 465 685 l 538 685 q 543 621 543 658 q 531 538 543 583 l 510 538 z "},"€":{"ha":779,"x_min":8,"x_max":769,"o":"m 682 671 q 481 747 581 747 q 349 628 381 747 l 572 628 q 581 560 581 594 q 572 494 581 525 l 331 494 l 331 404 l 572 404 q 581 336 581 371 q 572 271 581 301 l 349 271 q 479 153 379 153 q 682 228 579 153 q 740 174 717 208 q 769 101 764 139 q 453 -21 626 -21 q 132 271 190 -21 l 17 271 q 10 301 13 283 q 8 336 8 318 q 17 404 8 375 l 117 404 q 115 423 115 411 q 115 449 115 435 q 115 474 115 461 q 117 494 115 486 l 17 494 q 10 524 13 507 q 8 560 8 542 q 17 628 8 599 l 131 628 q 453 921 190 921 q 769 799 626 921 q 740 725 764 761 q 682 671 715 689 z "}}}
